<svg xmlns="http://www.w3.org/2000/svg" xmlns:xlink="http://www.w3.org/1999/xlink" width="55" zoomAndPan="magnify" viewBox="0 0 41.25 74.999998" height="100" preserveAspectRatio="xMidYMid meet" version="1.0"><defs><clipPath id="d7e6c18b0d"><path d="M 0.769531 4 L 39.808594 4 L 39.808594 68.828125 L 0.769531 68.828125 Z M 0.769531 4 " clip-rule="nonzero"/></clipPath></defs><g clip-path="url(#d7e6c18b0d)"><path fill="#000000" d="M 39.355469 8.542969 C 38.957031 7.015625 37.910156 5.375 36.453125 4.652344 C 33.613281 3.273438 30.550781 5.125 28.707031 7.289062 C 27.5625 8.644531 26.601562 10.183594 25.753906 11.738281 C 24.847656 13.390625 24.0625 15.121094 23.351562 16.875 C 22.617188 18.675781 21.980469 20.515625 21.433594 22.382812 C 20.972656 19.84375 20.152344 17.394531 18.65625 15.230469 C 17.910156 14.164062 17.039062 13.15625 16.066406 12.285156 C 15.28125 11.589844 14.421875 10.929688 13.449219 10.519531 C 12.652344 10.171875 11.78125 9.9375 10.910156 10.035156 C 10 10.136719 9.179688 10.519531 8.53125 11.167969 C 7 12.707031 6.664062 15.121094 6.5625 17.183594 C 6.4375 20.128906 6.550781 23.089844 6.910156 26.023438 C 7.273438 28.945312 7.722656 31.980469 8.394531 34.914062 C 9.054688 37.785156 9.902344 40.621094 10.886719 43.390625 C 11.867188 46.164062 13.003906 48.875 14.371094 51.484375 C 14.695312 52.09375 15.03125 52.679688 15.382812 53.277344 C 13.847656 55.203125 12.304688 57.128906 10.722656 59.019531 C 8.355469 61.832031 5.789062 64.539062 2.964844 66.890625 C 2.304688 67.4375 1.644531 67.972656 0.945312 68.46875 C 0.785156 68.582031 0.921875 68.828125 1.09375 68.730469 C 4.394531 66.988281 7.136719 64.367188 9.6875 61.679688 C 10.972656 60.324219 12.242188 58.957031 13.5 57.566406 C 14.398438 56.582031 15.304688 55.625 16.214844 54.65625 C 16.339844 54.855469 16.464844 55.066406 16.589844 55.265625 C 17.335938 56.507812 18.070312 57.753906 18.917969 58.945312 C 19.117188 59.230469 19.328125 59.519531 19.527344 59.804688 C 19.738281 60.101562 20 60.386719 20.1875 60.699219 C 20.375 61.007812 20.859375 60.722656 20.675781 60.414062 C 20.324219 59.816406 20.078125 59.132812 19.765625 58.511719 C 19.441406 57.875 19.105469 57.242188 18.742188 56.621094 C 18.183594 55.664062 17.636719 54.695312 17.113281 53.710938 C 17.25 53.5625 17.386719 53.425781 17.511719 53.277344 C 18.894531 51.785156 20.261719 50.292969 21.609375 48.761719 C 22.976562 47.210938 24.324219 45.644531 25.554688 43.988281 C 27.910156 40.832031 29.941406 37.460938 31.894531 34.042969 C 33.789062 30.75 35.519531 27.355469 36.828125 23.785156 C 37.5 21.957031 38.046875 20.09375 38.460938 18.203125 C 38.785156 16.722656 39.132812 15.230469 39.367188 13.742188 C 39.617188 12.035156 39.792969 10.246094 39.355469 8.542969 Z M 36.878906 11.988281 C 36.867188 12.1875 36.839844 12.371094 36.816406 12.570312 C 36.804688 12.644531 36.804688 12.707031 36.789062 12.78125 C 36.777344 12.832031 36.777344 12.882812 36.765625 12.945312 C 36.703125 13.328125 36.640625 13.714844 36.566406 14.101562 C 36.429688 14.847656 36.269531 15.582031 36.105469 16.328125 C 35.730469 18.03125 35.359375 19.707031 34.835938 21.375 C 34.5625 22.246094 34.261719 23.113281 33.925781 23.972656 C 33.765625 24.40625 33.589844 24.832031 33.414062 25.253906 C 33.402344 25.277344 33.390625 25.316406 33.378906 25.351562 C 33.378906 25.339844 33.390625 25.328125 33.390625 25.316406 C 33.351562 25.425781 33.289062 25.539062 33.253906 25.636719 C 33.167969 25.835938 33.078125 26.046875 32.992188 26.246094 C 32.246094 27.914062 31.421875 29.53125 30.550781 31.132812 C 28.746094 34.441406 26.890625 37.761719 24.757812 40.882812 C 23.664062 42.484375 22.503906 44.050781 21.359375 45.617188 C 21.222656 45.804688 21.074219 46.003906 20.9375 46.191406 C 20.875 46.277344 20.796875 46.363281 20.738281 46.449219 C 20.699219 46.5 20.675781 46.539062 20.636719 46.585938 C 20.625 46.613281 20.460938 46.8125 20.523438 46.75 C 20.25 47.097656 19.964844 47.496094 19.691406 47.832031 C 19.078125 48.601562 18.46875 49.371094 17.859375 50.144531 C 17.324219 50.800781 16.800781 51.472656 16.265625 52.144531 C 15.132812 49.933594 14 47.742188 13.140625 45.394531 C 11.207031 40.085938 9.765625 34.492188 9.027344 28.921875 C 8.65625 26.097656 8.53125 23.265625 8.542969 20.417969 C 8.554688 19.035156 8.566406 17.632812 8.730469 16.265625 C 8.730469 16.238281 8.742188 16.164062 8.742188 16.128906 C 8.742188 16.101562 8.753906 16.078125 8.753906 16.039062 C 8.78125 15.917969 8.792969 15.78125 8.816406 15.65625 C 8.867188 15.382812 8.929688 15.121094 8.992188 14.859375 C 9.054688 14.625 9.117188 14.398438 9.203125 14.175781 C 9.242188 14.089844 9.265625 14 9.304688 13.914062 C 9.328125 13.863281 9.339844 13.828125 9.367188 13.777344 C 9.453125 13.605469 9.539062 13.417969 9.652344 13.253906 C 9.6875 13.191406 9.738281 13.117188 9.777344 13.054688 C 9.777344 13.054688 9.800781 13.03125 9.8125 12.996094 C 9.824219 12.980469 9.839844 12.96875 9.851562 12.957031 C 9.964844 12.832031 10.0625 12.722656 10.1875 12.609375 C 10.199219 12.597656 10.210938 12.585938 10.238281 12.570312 C 10.300781 12.535156 10.347656 12.496094 10.410156 12.460938 C 10.472656 12.421875 10.535156 12.386719 10.597656 12.359375 C 10.734375 12.324219 10.886719 12.285156 11.023438 12.25 C 11.097656 12.25 11.171875 12.234375 11.246094 12.234375 C 11.332031 12.234375 11.421875 12.234375 11.507812 12.25 C 11.519531 12.25 11.53125 12.25 11.542969 12.25 C 11.707031 12.285156 11.855469 12.3125 12.019531 12.359375 C 12.117188 12.386719 12.203125 12.421875 12.292969 12.460938 C 12.328125 12.472656 12.355469 12.484375 12.367188 12.484375 C 12.765625 12.660156 13.140625 12.882812 13.5 13.132812 C 13.601562 13.207031 13.699219 13.28125 13.8125 13.355469 C 13.824219 13.355469 13.824219 13.367188 13.835938 13.378906 C 13.847656 13.390625 13.875 13.40625 13.886719 13.429688 C 14.097656 13.605469 14.308594 13.789062 14.523438 13.976562 C 14.96875 14.386719 15.382812 14.820312 15.78125 15.28125 C 15.878906 15.394531 15.980469 15.503906 16.066406 15.617188 C 16.101562 15.667969 16.152344 15.71875 16.191406 15.765625 C 16.191406 15.765625 16.253906 15.855469 16.289062 15.890625 C 16.328125 15.941406 16.363281 15.992188 16.363281 15.992188 C 16.402344 16.039062 16.441406 16.089844 16.476562 16.140625 C 16.578125 16.277344 16.675781 16.425781 16.777344 16.574219 C 17.101562 17.074219 17.398438 17.59375 17.660156 18.128906 C 17.722656 18.253906 17.785156 18.378906 17.847656 18.515625 C 17.882812 18.589844 17.910156 18.652344 17.945312 18.726562 C 17.960938 18.75 17.972656 18.789062 17.984375 18.8125 C 18.097656 19.074219 18.195312 19.347656 18.296875 19.621094 C 18.496094 20.179688 18.667969 20.753906 18.804688 21.335938 C 18.957031 21.921875 19.078125 22.503906 19.179688 23.101562 C 19.230469 23.386719 19.28125 23.660156 19.304688 23.949219 C 19.265625 23.648438 19.328125 24.132812 19.328125 24.207031 C 19.339844 24.371094 19.367188 24.519531 19.378906 24.679688 C 19.503906 25.886719 19.554688 27.09375 19.566406 28.300781 C 19.566406 28.894531 19.554688 29.480469 19.527344 30.078125 C 19.503906 30.6875 20.015625 31.195312 20.585938 31.269531 C 21.160156 31.34375 21.78125 30.996094 21.917969 30.398438 C 22.703125 27.007812 23.5625 23.648438 24.722656 20.367188 C 25.019531 19.523438 25.332031 18.6875 25.667969 17.867188 C 25.707031 17.769531 25.742188 17.679688 25.78125 17.582031 C 25.804688 17.519531 25.832031 17.457031 25.855469 17.394531 C 25.867188 17.359375 25.929688 17.222656 25.941406 17.195312 C 25.992188 17.074219 26.054688 16.949219 26.105469 16.824219 C 26.277344 16.425781 26.453125 16.027344 26.640625 15.640625 C 27.386719 14.0625 28.222656 12.507812 29.179688 11.042969 C 29.40625 10.695312 29.640625 10.359375 29.878906 10.011719 C 30.003906 9.847656 30.113281 9.675781 30.238281 9.511719 C 30.253906 9.5 30.265625 9.488281 30.277344 9.476562 C 30.328125 9.414062 30.375 9.351562 30.425781 9.289062 C 30.851562 8.78125 31.335938 8.320312 31.847656 7.882812 C 31.910156 7.835938 31.972656 7.796875 32.03125 7.746094 C 32.171875 7.648438 32.308594 7.5625 32.457031 7.472656 C 32.582031 7.398438 32.691406 7.335938 32.816406 7.261719 C 32.890625 7.226562 32.96875 7.1875 33.03125 7.152344 C 33.054688 7.136719 33.117188 7.113281 33.167969 7.089844 C 33.191406 7.078125 33.203125 7.078125 33.214844 7.078125 C 33.277344 7.050781 33.339844 7.027344 33.402344 7.015625 C 33.550781 6.964844 33.691406 6.925781 33.839844 6.890625 C 33.902344 6.878906 33.949219 6.863281 34.011719 6.851562 C 34.125 6.839844 34.238281 6.839844 34.363281 6.839844 C 34.4375 6.839844 34.5 6.839844 34.574219 6.851562 C 34.585938 6.851562 34.597656 6.851562 34.609375 6.851562 C 34.636719 6.851562 34.660156 6.863281 34.671875 6.863281 C 34.75 6.878906 34.808594 6.902344 34.886719 6.914062 C 34.933594 6.925781 34.984375 6.953125 35.046875 6.964844 C 35.160156 7.039062 35.285156 7.089844 35.394531 7.152344 C 35.433594 7.175781 35.46875 7.199219 35.507812 7.226562 C 35.632812 7.335938 35.746094 7.449219 35.855469 7.5625 C 35.894531 7.597656 35.929688 7.648438 35.96875 7.6875 C 35.980469 7.710938 36.007812 7.722656 36.019531 7.746094 C 36.128906 7.910156 36.242188 8.070312 36.328125 8.246094 C 36.429688 8.417969 36.515625 8.59375 36.589844 8.765625 C 36.617188 8.84375 36.640625 8.917969 36.667969 8.992188 C 36.714844 9.152344 36.753906 9.300781 36.789062 9.464844 C 36.816406 9.550781 36.828125 9.636719 36.839844 9.738281 C 36.839844 9.75 36.839844 9.761719 36.839844 9.761719 C 36.953125 10.484375 36.941406 11.242188 36.878906 11.988281 Z M 36.878906 11.988281 " fill-opacity="1" fill-rule="nonzero"/></g></svg>