<svg xmlns="http://www.w3.org/2000/svg" xmlns:xlink="http://www.w3.org/1999/xlink" width="2400" zoomAndPan="magnify" viewBox="0 0 1800 1799.999925" height="2400" preserveAspectRatio="xMidYMid meet" version="1.0"><defs><g/></defs><rect x="-180" width="2160" fill="#ffffff" y="-179.999992" height="2159.99991" fill-opacity="1"/><rect x="-180" width="2160" fill="#ffffff" y="-179.999992" height="2159.99991" fill-opacity="1"/><g fill="#a47764" fill-opacity="1"><g transform="translate(174.309872, 936.767052)"><g><path d="M 297.375 -195.28125 L 297.375 -80.40625 C 297.375 -67.21875 299.394531 -58.28125 303.4375 -53.59375 C 307.476562 -48.914062 312.265625 -46.363281 317.796875 -45.9375 C 323.328125 -45.519531 328.113281 -45.097656 332.15625 -44.671875 C 336.195312 -44.242188 338.21875 -41.691406 338.21875 -37.015625 C 338.21875 -31.054688 335.347656 -24.882812 329.609375 -18.5 C 323.867188 -12.125 316.742188 -6.914062 308.234375 -2.875 C 299.722656 1.164062 291 3.1875 282.0625 3.1875 C 270.15625 3.1875 259.519531 0 250.15625 -6.375 C 240.800781 -12.757812 234.421875 -25.097656 231.015625 -43.390625 C 216.972656 -25.953125 200.59375 -13.398438 181.875 -5.734375 C 163.15625 1.921875 144.007812 5.75 124.4375 5.75 C 103.164062 5.75 84.019531 1.707031 67 -6.375 C 49.988281 -14.457031 36.585938 -25.734375 26.796875 -40.203125 C 17.015625 -54.671875 12.125 -71.476562 12.125 -90.625 C 12.125 -111.039062 17.863281 -129.117188 29.34375 -144.859375 C 40.832031 -160.597656 57 -172.828125 77.84375 -181.546875 C 98.695312 -190.273438 122.953125 -194.640625 150.609375 -194.640625 C 160.390625 -194.640625 172.085938 -193.894531 185.703125 -192.40625 C 199.316406 -190.914062 213.566406 -187.191406 228.453125 -181.234375 C 226.753906 -211.867188 219.097656 -233.457031 205.484375 -246 C 191.867188 -258.550781 172.300781 -264.828125 146.78125 -264.828125 C 131.457031 -264.828125 117.734375 -262.703125 105.609375 -258.453125 C 93.484375 -254.203125 81.253906 -248.457031 68.921875 -241.21875 C 62.960938 -237.394531 57.75 -237.289062 53.28125 -240.90625 C 48.8125 -244.519531 48.921875 -250.15625 53.609375 -257.8125 C 59.140625 -265.894531 67.859375 -274.082031 79.765625 -282.375 C 91.679688 -290.675781 105.9375 -297.695312 122.53125 -303.4375 C 139.125 -309.1875 156.78125 -312.0625 175.5 -312.0625 C 217.1875 -312.0625 247.921875 -301.101562 267.703125 -279.1875 C 287.484375 -257.28125 297.375 -229.3125 297.375 -195.28125 Z M 151.25 -34.453125 C 164.007812 -34.453125 176.238281 -37.429688 187.9375 -43.390625 C 199.632812 -49.347656 209.3125 -56.6875 216.96875 -65.40625 C 224.625 -74.132812 228.453125 -82.960938 228.453125 -91.890625 C 228.453125 -99.972656 228.453125 -106.671875 228.453125 -111.984375 C 228.453125 -117.304688 228.242188 -125.925781 227.828125 -137.84375 C 227.398438 -145.070312 220.59375 -151.238281 207.40625 -156.34375 C 194.21875 -161.445312 178.472656 -164 160.171875 -164 C 136.347656 -164 116.988281 -158.148438 102.09375 -146.453125 C 87.207031 -134.753906 79.976562 -118.695312 80.40625 -98.28125 C 81.257812 -78.707031 87.851562 -63.175781 100.1875 -51.6875 C 112.53125 -40.195312 129.550781 -34.453125 151.25 -34.453125 Z M 151.25 -34.453125 "/></g></g></g><g fill="#a47764" fill-opacity="1"><g transform="translate(505.456601, 936.767052)"><g><path d="M 72.75 -354.171875 C 62.113281 -354.597656 53.710938 -358.210938 47.546875 -365.015625 C 41.378906 -371.828125 38.503906 -379.914062 38.921875 -389.28125 C 39.347656 -398.207031 42.539062 -406.925781 48.5 -415.4375 C 54.457031 -423.945312 62.113281 -430.859375 71.46875 -436.171875 C 80.832031 -441.492188 90.40625 -443.726562 100.1875 -442.875 C 109.976562 -442.457031 118.273438 -438.738281 125.078125 -431.71875 C 131.890625 -424.695312 135.082031 -416.289062 134.65625 -406.5 C 134.226562 -397.570312 130.820312 -389.066406 124.4375 -380.984375 C 118.0625 -372.898438 110.296875 -366.300781 101.140625 -361.1875 C 91.992188 -356.082031 82.53125 -353.742188 72.75 -354.171875 Z M 58.703125 -86.15625 L 58.078125 -208.671875 C 58.078125 -221.015625 56.585938 -230.375 53.609375 -236.75 C 50.628906 -243.132812 47.117188 -247.816406 43.078125 -250.796875 C 39.035156 -253.773438 35.414062 -256.539062 32.21875 -259.09375 C 29.03125 -261.644531 27.4375 -265.472656 27.4375 -270.578125 C 27.4375 -274.410156 28.710938 -277.601562 31.265625 -280.15625 C 33.816406 -282.707031 38.921875 -285.679688 46.578125 -289.078125 C 60.191406 -295.460938 74.234375 -300.992188 88.703125 -305.671875 C 103.171875 -310.359375 112.742188 -312.910156 117.421875 -313.328125 C 126.773438 -313.753906 131.453125 -308.226562 131.453125 -296.75 L 130.828125 -208.671875 L 130.828125 -86.15625 C 130.828125 -71.257812 132.3125 -60.195312 135.28125 -52.96875 C 138.257812 -45.738281 141.769531 -40.421875 145.8125 -37.015625 C 149.851562 -33.609375 153.363281 -30.519531 156.34375 -27.75 C 159.320312 -24.988281 160.8125 -20.421875 160.8125 -14.046875 C 160.8125 -8.515625 158.578125 -4.789062 154.109375 -2.875 C 149.648438 -0.957031 143.164062 0 134.65625 0 L 54.25 0 C 46.164062 0 39.675781 -1.0625 34.78125 -3.1875 C 29.882812 -5.3125 27.4375 -9.140625 27.4375 -14.671875 C 27.4375 -20.628906 29.03125 -24.988281 32.21875 -27.75 C 35.414062 -30.519531 39.035156 -33.609375 43.078125 -37.015625 C 47.117188 -40.421875 50.734375 -45.738281 53.921875 -52.96875 C 57.109375 -60.195312 58.703125 -71.257812 58.703125 -86.15625 Z M 58.703125 -86.15625 "/></g></g></g><g fill="#a47764" fill-opacity="1"><g transform="translate(666.87905, 936.767052)"><g><path d="M 559.65625 -181.234375 L 560.296875 -86.15625 C 560.296875 -71.257812 561.890625 -60.195312 565.078125 -52.96875 C 568.273438 -45.738281 571.894531 -40.421875 575.9375 -37.015625 C 579.976562 -33.609375 583.488281 -30.519531 586.46875 -27.75 C 589.445312 -24.988281 590.9375 -20.421875 590.9375 -14.046875 C 590.9375 -8.515625 588.59375 -4.789062 583.90625 -2.875 C 579.226562 -0.957031 572.632812 0 564.125 0 L 484.359375 0 C 476.273438 0 469.785156 -1.0625 464.890625 -3.1875 C 460.003906 -5.3125 457.5625 -9.140625 457.5625 -14.671875 C 457.5625 -20.628906 459.15625 -24.988281 462.34375 -27.75 C 465.53125 -30.519531 469.144531 -33.609375 473.1875 -37.015625 C 477.226562 -40.421875 480.738281 -45.738281 483.71875 -52.96875 C 486.695312 -60.195312 488.1875 -71.257812 488.1875 -86.15625 L 488.1875 -172.296875 C 488.1875 -199.097656 483.1875 -221.753906 473.1875 -240.265625 C 463.195312 -258.773438 445.648438 -267.816406 420.546875 -267.390625 C 400.972656 -266.960938 383.421875 -258.664062 367.890625 -242.5 C 352.367188 -226.332031 344.179688 -202.082031 343.328125 -169.75 L 343.96875 -86.15625 C 343.96875 -71.257812 345.457031 -60.195312 348.4375 -52.96875 C 351.414062 -45.738281 354.925781 -40.421875 358.96875 -37.015625 C 363.007812 -33.609375 366.515625 -30.519531 369.484375 -27.75 C 372.460938 -24.988281 373.953125 -20.421875 373.953125 -14.046875 C 373.953125 -8.515625 371.71875 -4.789062 367.25 -2.875 C 362.789062 -0.957031 356.304688 0 347.796875 0 L 268.03125 0 C 259.945312 0 253.347656 -1.0625 248.234375 -3.1875 C 243.128906 -5.3125 240.578125 -9.140625 240.578125 -14.671875 C 240.578125 -20.628906 242.171875 -24.988281 245.359375 -27.75 C 248.554688 -30.519531 252.175781 -33.609375 256.21875 -37.015625 C 260.257812 -40.421875 263.875 -45.738281 267.0625 -52.96875 C 270.257812 -60.195312 271.859375 -71.257812 271.859375 -86.15625 L 271.859375 -172.296875 C 271.859375 -189.742188 270.15625 -205.695312 266.75 -220.15625 C 263.34375 -234.625 257.171875 -246.113281 248.234375 -254.625 C 239.304688 -263.132812 226.332031 -267.175781 209.3125 -266.75 C 196.125 -266.75 183.570312 -262.921875 171.65625 -255.265625 C 159.75 -247.609375 149.96875 -236.226562 142.3125 -221.125 C 134.65625 -206.019531 130.828125 -187.191406 130.828125 -164.640625 L 130.828125 -86.15625 C 130.828125 -71.257812 132.3125 -60.195312 135.28125 -52.96875 C 138.257812 -45.738281 141.769531 -40.421875 145.8125 -37.015625 C 149.851562 -33.609375 153.363281 -30.519531 156.34375 -27.75 C 159.320312 -24.988281 160.8125 -20.421875 160.8125 -14.046875 C 160.8125 -8.515625 158.578125 -4.789062 154.109375 -2.875 C 149.648438 -0.957031 143.164062 0 134.65625 0 L 54.25 0 C 46.164062 0 39.675781 -1.0625 34.78125 -3.1875 C 29.882812 -5.3125 27.4375 -9.140625 27.4375 -14.671875 C 27.4375 -20.628906 29.03125 -24.988281 32.21875 -27.75 C 35.414062 -30.519531 39.035156 -33.609375 43.078125 -37.015625 C 47.117188 -40.421875 50.734375 -45.738281 53.921875 -52.96875 C 57.109375 -60.195312 58.703125 -71.257812 58.703125 -86.15625 L 58.703125 -211.234375 C 58.703125 -221.015625 57.210938 -229.519531 54.234375 -236.75 C 51.265625 -243.988281 46.160156 -249.945312 38.921875 -254.625 C 35.941406 -256.75 33.28125 -259.085938 30.9375 -261.640625 C 28.601562 -264.191406 27.4375 -267.382812 27.4375 -271.21875 C 27.4375 -275.46875 28.710938 -278.972656 31.265625 -281.734375 C 33.816406 -284.503906 38.921875 -287.59375 46.578125 -291 C 58.066406 -296.101562 70.300781 -300.675781 83.28125 -304.71875 C 96.257812 -308.757812 105.085938 -310.992188 109.765625 -311.421875 C 118.703125 -311.421875 123.171875 -305.890625 123.171875 -294.828125 L 122.53125 -245.6875 C 135.289062 -268.238281 151.347656 -285.046875 170.703125 -296.109375 C 190.066406 -307.171875 210.804688 -312.703125 232.921875 -312.703125 C 283.972656 -312.703125 317.375 -290.789062 333.125 -246.96875 C 346.3125 -269.507812 362.898438 -286.097656 382.890625 -296.734375 C 402.890625 -307.378906 423.738281 -312.703125 445.4375 -312.703125 C 482.019531 -312.703125 510.203125 -301.425781 529.984375 -278.875 C 549.765625 -256.320312 559.65625 -223.773438 559.65625 -181.234375 Z M 559.65625 -181.234375 "/></g></g></g><g fill="#a47764" fill-opacity="1"><g transform="translate(1250.698183, 936.767052)"><g><path d="M 317.796875 -170.390625 C 317.367188 -161.023438 312.265625 -156.34375 302.484375 -156.34375 L 93.171875 -154.4375 C 94.867188 -134.007812 100.394531 -115.609375 109.75 -99.234375 C 119.113281 -82.859375 131.769531 -69.882812 147.71875 -60.3125 C 163.675781 -50.738281 181.867188 -45.953125 202.296875 -45.953125 C 222.710938 -45.953125 240.578125 -49.992188 255.890625 -58.078125 C 271.210938 -66.160156 284.40625 -75.734375 295.46875 -86.796875 C 301.425781 -92.742188 306.957031 -94.015625 312.0625 -90.609375 C 317.164062 -87.210938 318.015625 -81.257812 314.609375 -72.75 C 310.359375 -61.6875 302.378906 -49.984375 290.671875 -37.640625 C 278.972656 -25.304688 263.65625 -14.882812 244.71875 -6.375 C 225.789062 2.125 203.140625 6.375 176.765625 6.375 C 145.710938 6.375 118.484375 -0.21875 95.078125 -13.40625 C 71.679688 -26.59375 53.601562 -44.882812 40.84375 -68.28125 C 28.082031 -91.675781 21.703125 -118.265625 21.703125 -148.046875 C 21.703125 -179.109375 28.929688 -206.972656 43.390625 -231.640625 C 57.859375 -256.316406 77.535156 -275.992188 102.421875 -290.671875 C 127.304688 -305.359375 154.851562 -312.703125 185.0625 -312.703125 C 211.863281 -312.703125 235.6875 -306.957031 256.53125 -295.46875 C 277.382812 -283.976562 293.445312 -267.597656 304.71875 -246.328125 C 315.988281 -225.054688 320.347656 -199.742188 317.796875 -170.390625 Z M 107.203125 -186.984375 L 234.84375 -187.625 C 240.800781 -187.625 244.628906 -188.472656 246.328125 -190.171875 C 248.023438 -191.867188 248.664062 -196.335938 248.25 -203.578125 C 246.96875 -224.847656 239.625 -242.609375 226.21875 -256.859375 C 212.820312 -271.109375 194.425781 -278.234375 171.03125 -278.234375 C 154.863281 -278.234375 141.035156 -273.976562 129.546875 -265.46875 C 118.054688 -256.957031 109.117188 -246.742188 102.734375 -234.828125 C 96.359375 -222.921875 92.957031 -211.4375 92.53125 -200.375 C 92.101562 -194.425781 92.738281 -190.707031 94.4375 -189.21875 C 96.144531 -187.726562 100.398438 -186.984375 107.203125 -186.984375 Z M 107.203125 -186.984375 "/></g></g></g><g fill="#a47764" fill-opacity="1"><g transform="translate(308.645725, 1134.031374)"><g><path d="M 64.609375 -87.6875 C 71.765625 -87.6875 78.054688 -85.925781 83.484375 -82.40625 C 88.910156 -78.882812 93.171875 -73.960938 96.265625 -67.640625 C 99.367188 -61.316406 100.921875 -53.984375 100.921875 -45.640625 C 100.921875 -35.847656 99.070312 -27.429688 95.375 -20.390625 C 91.675781 -13.359375 86.84375 -7.929688 80.875 -4.109375 C 74.914062 -0.296875 68.535156 1.671875 61.734375 1.796875 C 56.722656 1.910156 51.921875 1.132812 47.328125 -0.53125 C 42.734375 -2.207031 38.769531 -4.175781 35.4375 -6.4375 L 35.609375 11.625 C 35.609375 15.800781 36.023438 18.90625 36.859375 20.9375 C 37.691406 22.96875 38.675781 24.457031 39.8125 25.40625 C 40.945312 26.363281 41.929688 27.226562 42.765625 28 C 43.597656 28.78125 44.015625 30.066406 44.015625 31.859375 C 44.015625 33.410156 43.390625 34.453125 42.140625 34.984375 C 40.890625 35.523438 39.070312 35.796875 36.6875 35.796875 L 14.140625 35.796875 C 11.867188 35.796875 10.046875 35.523438 8.671875 34.984375 C 7.304688 34.453125 6.625 33.410156 6.625 31.859375 C 6.625 30.066406 7.070312 28.78125 7.96875 28 C 8.863281 27.226562 9.875 26.363281 11 25.40625 C 12.132812 24.457031 13.148438 22.96875 14.046875 20.9375 C 14.941406 18.90625 15.390625 15.800781 15.390625 11.625 L 15.03125 -59.765625 C 15.03125 -62.515625 14.640625 -64.875 13.859375 -66.84375 C 13.085938 -68.8125 11.6875 -70.453125 9.65625 -71.765625 C 8.820312 -72.359375 8.078125 -73.007812 7.421875 -73.71875 C 6.765625 -74.4375 6.4375 -75.332031 6.4375 -76.40625 C 6.4375 -77.71875 6.796875 -78.734375 7.515625 -79.453125 C 8.234375 -80.171875 9.664062 -81.003906 11.8125 -81.953125 C 15.03125 -83.503906 18.457031 -84.816406 22.09375 -85.890625 C 25.738281 -86.972656 28.21875 -87.570312 29.53125 -87.6875 C 32.03125 -87.925781 33.28125 -86.375 33.28125 -83.03125 L 33.109375 -70.328125 C 36.085938 -74.859375 40.140625 -78.882812 45.265625 -82.40625 C 50.398438 -85.925781 56.847656 -87.6875 64.609375 -87.6875 Z M 61.015625 -7.875 C 65.796875 -7.875 69.644531 -9.242188 72.5625 -11.984375 C 75.488281 -14.734375 77.664062 -18.34375 79.09375 -22.8125 C 80.53125 -27.289062 81.25 -31.972656 81.25 -36.859375 C 81.25 -48.671875 78.890625 -57.914062 74.171875 -64.59375 C 69.460938 -71.28125 63.769531 -74.625 57.09375 -74.625 C 52.550781 -74.625 48.640625 -73.3125 45.359375 -70.6875 C 42.078125 -68.0625 39.601562 -64.75 37.9375 -60.75 C 36.269531 -56.757812 35.4375 -52.613281 35.4375 -48.3125 L 35.4375 -36.15625 C 35.550781 -30.1875 36.890625 -25.082031 39.453125 -20.84375 C 42.023438 -16.613281 45.28125 -13.394531 49.21875 -11.1875 C 53.15625 -8.976562 57.085938 -7.875 61.015625 -7.875 Z M 61.015625 -7.875 "/></g></g></g><g fill="#a47764" fill-opacity="1"><g transform="translate(417.414707, 1134.031374)"><g><path d="M 20.40625 -99.3125 C 17.414062 -99.4375 15.054688 -100.453125 13.328125 -102.359375 C 11.597656 -104.265625 10.796875 -106.53125 10.921875 -109.15625 C 11.035156 -111.664062 11.925781 -114.113281 13.59375 -116.5 C 15.269531 -118.882812 17.421875 -120.820312 20.046875 -122.3125 C 22.671875 -123.800781 25.351562 -124.425781 28.09375 -124.1875 C 30.84375 -124.070312 33.171875 -123.03125 35.078125 -121.0625 C 36.984375 -119.09375 37.878906 -116.738281 37.765625 -114 C 37.640625 -111.488281 36.679688 -109.097656 34.890625 -106.828125 C 33.109375 -104.566406 30.929688 -102.71875 28.359375 -101.28125 C 25.796875 -99.851562 23.144531 -99.195312 20.40625 -99.3125 Z M 16.46875 -24.15625 L 16.28125 -58.515625 C 16.28125 -61.972656 15.863281 -64.597656 15.03125 -66.390625 C 14.195312 -68.179688 13.210938 -69.492188 12.078125 -70.328125 C 10.941406 -71.160156 9.925781 -71.9375 9.03125 -72.65625 C 8.132812 -73.375 7.6875 -74.445312 7.6875 -75.875 C 7.6875 -76.945312 8.046875 -77.84375 8.765625 -78.5625 C 9.484375 -79.28125 10.914062 -80.113281 13.0625 -81.0625 C 16.882812 -82.851562 20.820312 -84.40625 24.875 -85.71875 C 28.925781 -87.03125 31.609375 -87.742188 32.921875 -87.859375 C 35.546875 -87.984375 36.859375 -86.4375 36.859375 -83.21875 L 36.6875 -58.515625 L 36.6875 -24.15625 C 36.6875 -19.976562 37.101562 -16.875 37.9375 -14.84375 C 38.769531 -12.820312 39.753906 -11.332031 40.890625 -10.375 C 42.023438 -9.425781 43.007812 -8.5625 43.84375 -7.78125 C 44.675781 -7.007812 45.09375 -5.726562 45.09375 -3.9375 C 45.09375 -2.382812 44.46875 -1.335938 43.21875 -0.796875 C 41.96875 -0.265625 40.148438 0 37.765625 0 L 15.21875 0 C 12.945312 0 11.125 -0.296875 9.75 -0.890625 C 8.375 -1.492188 7.6875 -2.566406 7.6875 -4.109375 C 7.6875 -5.785156 8.132812 -7.007812 9.03125 -7.78125 C 9.925781 -8.5625 10.941406 -9.425781 12.078125 -10.375 C 13.210938 -11.332031 14.226562 -12.820312 15.125 -14.84375 C 16.019531 -16.875 16.46875 -19.976562 16.46875 -24.15625 Z M 16.46875 -24.15625 "/></g></g></g><g fill="#a47764" fill-opacity="1"><g transform="translate(471.441784, 1134.031374)"><g><path d="M 16.28125 -24.15625 L 16.28125 -97.703125 C 16.28125 -101.160156 15.832031 -103.785156 14.9375 -105.578125 C 14.039062 -107.367188 13.023438 -108.679688 11.890625 -109.515625 C 10.765625 -110.347656 9.753906 -111.125 8.859375 -111.84375 C 7.960938 -112.5625 7.515625 -113.632812 7.515625 -115.0625 C 7.515625 -116.132812 7.867188 -117.03125 8.578125 -117.75 C 9.296875 -118.46875 10.734375 -119.300781 12.890625 -120.25 C 16.703125 -122.039062 20.632812 -123.59375 24.6875 -124.90625 C 28.75 -126.21875 31.4375 -126.9375 32.75 -127.0625 C 35.375 -127.175781 36.6875 -125.625 36.6875 -122.40625 L 36.5 -97.703125 L 36.5 -24.15625 C 36.5 -19.976562 36.914062 -16.875 37.75 -14.84375 C 38.59375 -12.820312 39.578125 -11.332031 40.703125 -10.375 C 41.835938 -9.425781 42.820312 -8.5625 43.65625 -7.78125 C 44.5 -7.007812 44.921875 -5.726562 44.921875 -3.9375 C 44.921875 -2.382812 44.289062 -1.335938 43.03125 -0.796875 C 41.78125 -0.265625 39.960938 0 37.578125 0 L 15.03125 0 C 12.757812 0 10.9375 -0.296875 9.5625 -0.890625 C 8.195312 -1.492188 7.515625 -2.566406 7.515625 -4.109375 C 7.515625 -5.785156 7.960938 -7.007812 8.859375 -7.78125 C 9.753906 -8.5625 10.765625 -9.425781 11.890625 -10.375 C 13.023438 -11.332031 14.039062 -12.820312 14.9375 -14.84375 C 15.832031 -16.875 16.28125 -19.976562 16.28125 -24.15625 Z M 16.28125 -24.15625 "/></g></g></g><g fill="#a47764" fill-opacity="1"><g transform="translate(525.111085, 1134.031374)"><g><path d="M 83.390625 -54.765625 L 83.390625 -22.546875 C 83.390625 -18.847656 83.957031 -16.34375 85.09375 -15.03125 C 86.226562 -13.71875 87.566406 -13 89.109375 -12.875 C 90.660156 -12.757812 92.003906 -12.640625 93.140625 -12.515625 C 94.273438 -12.398438 94.84375 -11.6875 94.84375 -10.375 C 94.84375 -8.707031 94.035156 -6.976562 92.421875 -5.1875 C 90.816406 -3.394531 88.820312 -1.929688 86.4375 -0.796875 C 84.050781 0.328125 81.601562 0.890625 79.09375 0.890625 C 75.757812 0.890625 72.78125 0 70.15625 -1.78125 C 67.53125 -3.570312 65.738281 -7.035156 64.78125 -12.171875 C 60.84375 -7.273438 56.25 -3.753906 51 -1.609375 C 45.75 0.535156 40.378906 1.609375 34.890625 1.609375 C 28.929688 1.609375 23.5625 0.476562 18.78125 -1.78125 C 14.007812 -4.050781 10.253906 -7.210938 7.515625 -11.265625 C 4.773438 -15.328125 3.40625 -20.039062 3.40625 -25.40625 C 3.40625 -31.132812 5.015625 -36.207031 8.234375 -40.625 C 11.453125 -45.039062 15.984375 -48.46875 21.828125 -50.90625 C 27.671875 -53.351562 34.472656 -54.578125 42.234375 -54.578125 C 44.972656 -54.578125 48.25 -54.367188 52.0625 -53.953125 C 55.882812 -53.535156 59.882812 -52.492188 64.0625 -50.828125 C 63.582031 -59.410156 61.429688 -65.460938 57.609375 -68.984375 C 53.796875 -72.503906 48.3125 -74.265625 41.15625 -74.265625 C 36.863281 -74.265625 33.015625 -73.664062 29.609375 -72.46875 C 26.210938 -71.28125 22.785156 -69.671875 19.328125 -67.640625 C 17.660156 -66.566406 16.195312 -66.535156 14.9375 -67.546875 C 13.6875 -68.566406 13.71875 -70.148438 15.03125 -72.296875 C 16.582031 -74.566406 19.023438 -76.863281 22.359375 -79.1875 C 25.703125 -81.507812 29.703125 -83.476562 34.359375 -85.09375 C 39.015625 -86.707031 43.96875 -87.515625 49.21875 -87.515625 C 60.90625 -87.515625 69.519531 -84.441406 75.0625 -78.296875 C 80.613281 -72.148438 83.390625 -64.304688 83.390625 -54.765625 Z M 42.40625 -9.65625 C 45.988281 -9.65625 49.421875 -10.488281 52.703125 -12.15625 C 55.984375 -13.832031 58.695312 -15.894531 60.84375 -18.34375 C 62.988281 -20.789062 64.0625 -23.265625 64.0625 -25.765625 C 64.0625 -28.035156 64.0625 -29.914062 64.0625 -31.40625 C 64.0625 -32.894531 64.003906 -35.3125 63.890625 -38.65625 C 63.765625 -40.6875 61.851562 -42.414062 58.15625 -43.84375 C 54.457031 -45.269531 50.046875 -45.984375 44.921875 -45.984375 C 38.234375 -45.984375 32.800781 -44.34375 28.625 -41.0625 C 24.457031 -37.789062 22.429688 -33.289062 22.546875 -27.5625 C 22.785156 -22.070312 24.632812 -17.710938 28.09375 -14.484375 C 31.550781 -11.265625 36.320312 -9.65625 42.40625 -9.65625 Z M 42.40625 -9.65625 "/></g></g></g><g fill="#a47764" fill-opacity="1"><g transform="translate(626.724298, 1134.031374)"><g><path d="M 57.796875 -18.25 C 59.347656 -19.5625 60.691406 -19.738281 61.828125 -18.78125 C 62.960938 -17.832031 63.234375 -16.523438 62.640625 -14.859375 C 61.796875 -12.585938 60.269531 -10.140625 58.0625 -7.515625 C 55.863281 -4.890625 53.003906 -2.679688 49.484375 -0.890625 C 45.960938 0.898438 41.816406 1.796875 37.046875 1.796875 C 29.410156 1.796875 23.59375 -0.5 19.59375 -5.09375 C 15.59375 -9.6875 13.59375 -16.335938 13.59375 -25.046875 L 13.59375 -32.390625 C 13.59375 -41.578125 13.648438 -49.898438 13.765625 -57.359375 C 13.890625 -64.816406 14.070312 -71.109375 14.3125 -76.234375 L 8.40625 -76.234375 C 6.382812 -76.234375 4.953125 -76.5625 4.109375 -77.21875 C 3.273438 -77.875 2.859375 -78.859375 2.859375 -80.171875 C 2.859375 -81.960938 3.578125 -83.632812 5.015625 -85.1875 C 8.347656 -88.757812 11.832031 -92.066406 15.46875 -95.109375 C 19.113281 -98.148438 22.609375 -100.804688 25.953125 -103.078125 C 27.617188 -104.148438 28.835938 -104.773438 29.609375 -104.953125 C 30.390625 -105.128906 31.078125 -105.21875 31.671875 -105.21875 C 32.867188 -105.21875 33.734375 -104.769531 34.265625 -103.875 C 34.804688 -102.988281 35.015625 -101.890625 34.890625 -100.578125 C 34.773438 -98.421875 34.65625 -96.179688 34.53125 -93.859375 C 34.414062 -91.535156 34.300781 -88.878906 34.1875 -85.890625 L 52.078125 -85.890625 C 53.628906 -85.890625 54.941406 -85.59375 56.015625 -85 C 57.085938 -84.40625 57.382812 -82.914062 56.90625 -80.53125 C 56.425781 -78.019531 55.5 -76.46875 54.125 -75.875 C 52.757812 -75.28125 51.238281 -75.039062 49.5625 -75.15625 L 34 -75.703125 C 33.882812 -70.804688 33.828125 -64.867188 33.828125 -57.890625 C 33.828125 -50.910156 33.707031 -42.410156 33.46875 -32.390625 C 33.34375 -25.472656 34.054688 -20.460938 35.609375 -17.359375 C 37.160156 -14.253906 40.144531 -12.703125 44.5625 -12.703125 C 46.945312 -12.703125 49.332031 -13.269531 51.71875 -14.40625 C 54.101562 -15.539062 56.128906 -16.820312 57.796875 -18.25 Z M 57.796875 -18.25 "/></g></g></g><g fill="#a47764" fill-opacity="1"><g transform="translate(694.705204, 1134.031374)"><g><path d="M 89.125 -47.78125 C 89 -45.15625 87.566406 -43.84375 84.828125 -43.84375 L 26.125 -43.3125 C 26.601562 -37.582031 28.15625 -32.421875 30.78125 -27.828125 C 33.40625 -23.234375 36.953125 -19.59375 41.421875 -16.90625 C 45.898438 -14.226562 51.003906 -12.890625 56.734375 -12.890625 C 62.453125 -12.890625 67.457031 -14.019531 71.75 -16.28125 C 76.050781 -18.550781 79.753906 -21.238281 82.859375 -24.34375 C 84.523438 -26.007812 86.070312 -26.363281 87.5 -25.40625 C 88.9375 -24.457031 89.175781 -22.789062 88.21875 -20.40625 C 87.03125 -17.300781 84.796875 -14.019531 81.515625 -10.5625 C 78.234375 -7.101562 73.9375 -4.175781 68.625 -1.78125 C 63.320312 0.601562 56.96875 1.796875 49.5625 1.796875 C 40.851562 1.796875 33.21875 -0.0507812 26.65625 -3.75 C 20.101562 -7.457031 15.035156 -12.585938 11.453125 -19.140625 C 7.867188 -25.703125 6.078125 -33.160156 6.078125 -41.515625 C 6.078125 -50.222656 8.101562 -58.035156 12.15625 -64.953125 C 16.21875 -71.878906 21.738281 -77.398438 28.71875 -81.515625 C 35.695312 -85.628906 43.421875 -87.6875 51.890625 -87.6875 C 59.410156 -87.6875 66.09375 -86.078125 71.9375 -82.859375 C 77.78125 -79.640625 82.28125 -75.046875 85.4375 -69.078125 C 88.601562 -63.109375 89.832031 -56.007812 89.125 -47.78125 Z M 30.0625 -52.4375 L 65.859375 -52.609375 C 67.523438 -52.609375 68.597656 -52.847656 69.078125 -53.328125 C 69.554688 -53.804688 69.734375 -55.0625 69.609375 -57.09375 C 69.253906 -63.050781 67.195312 -68.03125 63.4375 -72.03125 C 59.675781 -76.03125 54.515625 -78.03125 47.953125 -78.03125 C 43.421875 -78.03125 39.546875 -76.832031 36.328125 -74.4375 C 33.109375 -72.050781 30.601562 -69.1875 28.8125 -65.84375 C 27.019531 -62.507812 26.066406 -59.289062 25.953125 -56.1875 C 25.828125 -54.519531 26.003906 -53.476562 26.484375 -53.0625 C 26.960938 -52.644531 28.15625 -52.4375 30.0625 -52.4375 Z M 30.0625 -52.4375 "/></g></g></g><g fill="#a47764" fill-opacity="1"><g transform="translate(790.593745, 1134.031374)"><g><path d="M 45.640625 1.796875 C 37.878906 1.796875 31.164062 0.632812 25.5 -1.6875 C 19.832031 -4.019531 15.445312 -7.035156 12.34375 -10.734375 C 9.238281 -14.429688 7.6875 -18.3125 7.6875 -22.375 C 7.6875 -25.226562 8.613281 -27.488281 10.46875 -29.15625 C 12.320312 -30.832031 14.554688 -31.671875 17.171875 -31.671875 C 19.679688 -31.671875 21.59375 -30.953125 22.90625 -29.515625 C 24.21875 -28.085938 25.46875 -26.484375 26.65625 -24.703125 C 28.207031 -22.304688 29.816406 -19.765625 31.484375 -17.078125 C 33.160156 -14.398438 35.28125 -12.132812 37.84375 -10.28125 C 40.414062 -8.4375 43.847656 -7.515625 48.140625 -7.515625 C 52.078125 -7.515625 55.148438 -8.554688 57.359375 -10.640625 C 59.566406 -12.734375 60.671875 -15.269531 60.671875 -18.25 C 60.671875 -21.707031 58.910156 -24.898438 55.390625 -27.828125 C 51.867188 -30.753906 46.410156 -33.707031 39.015625 -36.6875 C 34.242188 -38.59375 29.707031 -40.617188 25.40625 -42.765625 C 21.113281 -44.910156 17.65625 -47.625 15.03125 -50.90625 C 12.40625 -54.1875 11.09375 -58.332031 11.09375 -63.34375 C 11.09375 -68.832031 12.757812 -73.363281 16.09375 -76.9375 C 19.4375 -80.519531 23.671875 -83.207031 28.796875 -85 C 33.929688 -86.789062 39.242188 -87.6875 44.734375 -87.6875 C 51.296875 -87.6875 57.050781 -86.757812 62 -84.90625 C 66.957031 -83.0625 70.835938 -80.585938 73.640625 -77.484375 C 76.441406 -74.378906 77.84375 -70.800781 77.84375 -66.75 C 77.84375 -63.769531 77.066406 -61.414062 75.515625 -59.6875 C 73.960938 -57.957031 71.875 -57.09375 69.25 -57.09375 C 66.625 -57.09375 64.535156 -57.804688 62.984375 -59.234375 C 61.441406 -60.660156 60.191406 -62.269531 59.234375 -64.0625 C 58.035156 -66.207031 56.835938 -68.414062 55.640625 -70.6875 C 54.453125 -72.957031 52.84375 -74.835938 50.8125 -76.328125 C 48.789062 -77.816406 45.8125 -78.5625 41.875 -78.5625 C 38.53125 -78.5625 35.722656 -77.578125 33.453125 -75.609375 C 31.191406 -73.640625 30.0625 -71.164062 30.0625 -68.1875 C 30.0625 -64.488281 31.550781 -61.328125 34.53125 -58.703125 C 37.519531 -56.078125 43.128906 -53.03125 51.359375 -49.5625 C 56.847656 -47.414062 61.796875 -45.179688 66.203125 -42.859375 C 70.617188 -40.535156 74.109375 -37.878906 76.671875 -34.890625 C 79.242188 -31.910156 80.53125 -28.15625 80.53125 -23.625 C 80.53125 -18.96875 79.097656 -14.726562 76.234375 -10.90625 C 73.367188 -7.09375 69.34375 -4.019531 64.15625 -1.6875 C 58.96875 0.632812 52.796875 1.796875 45.640625 1.796875 Z M 45.640625 1.796875 "/></g></g></g><g fill="#a47764" fill-opacity="1"><g transform="translate(879.326528, 1134.031374)"><g/></g></g><g fill="#a47764" fill-opacity="1"><g transform="translate(916.716301, 1134.031374)"><g><path d="M 45.640625 1.796875 C 37.878906 1.796875 31.164062 0.632812 25.5 -1.6875 C 19.832031 -4.019531 15.445312 -7.035156 12.34375 -10.734375 C 9.238281 -14.429688 7.6875 -18.3125 7.6875 -22.375 C 7.6875 -25.226562 8.613281 -27.488281 10.46875 -29.15625 C 12.320312 -30.832031 14.554688 -31.671875 17.171875 -31.671875 C 19.679688 -31.671875 21.59375 -30.953125 22.90625 -29.515625 C 24.21875 -28.085938 25.46875 -26.484375 26.65625 -24.703125 C 28.207031 -22.304688 29.816406 -19.765625 31.484375 -17.078125 C 33.160156 -14.398438 35.28125 -12.132812 37.84375 -10.28125 C 40.414062 -8.4375 43.847656 -7.515625 48.140625 -7.515625 C 52.078125 -7.515625 55.148438 -8.554688 57.359375 -10.640625 C 59.566406 -12.734375 60.671875 -15.269531 60.671875 -18.25 C 60.671875 -21.707031 58.910156 -24.898438 55.390625 -27.828125 C 51.867188 -30.753906 46.410156 -33.707031 39.015625 -36.6875 C 34.242188 -38.59375 29.707031 -40.617188 25.40625 -42.765625 C 21.113281 -44.910156 17.65625 -47.625 15.03125 -50.90625 C 12.40625 -54.1875 11.09375 -58.332031 11.09375 -63.34375 C 11.09375 -68.832031 12.757812 -73.363281 16.09375 -76.9375 C 19.4375 -80.519531 23.671875 -83.207031 28.796875 -85 C 33.929688 -86.789062 39.242188 -87.6875 44.734375 -87.6875 C 51.296875 -87.6875 57.050781 -86.757812 62 -84.90625 C 66.957031 -83.0625 70.835938 -80.585938 73.640625 -77.484375 C 76.441406 -74.378906 77.84375 -70.800781 77.84375 -66.75 C 77.84375 -63.769531 77.066406 -61.414062 75.515625 -59.6875 C 73.960938 -57.957031 71.875 -57.09375 69.25 -57.09375 C 66.625 -57.09375 64.535156 -57.804688 62.984375 -59.234375 C 61.441406 -60.660156 60.191406 -62.269531 59.234375 -64.0625 C 58.035156 -66.207031 56.835938 -68.414062 55.640625 -70.6875 C 54.453125 -72.957031 52.84375 -74.835938 50.8125 -76.328125 C 48.789062 -77.816406 45.8125 -78.5625 41.875 -78.5625 C 38.53125 -78.5625 35.722656 -77.578125 33.453125 -75.609375 C 31.191406 -73.640625 30.0625 -71.164062 30.0625 -68.1875 C 30.0625 -64.488281 31.550781 -61.328125 34.53125 -58.703125 C 37.519531 -56.078125 43.128906 -53.03125 51.359375 -49.5625 C 56.847656 -47.414062 61.796875 -45.179688 66.203125 -42.859375 C 70.617188 -40.535156 74.109375 -37.878906 76.671875 -34.890625 C 79.242188 -31.910156 80.53125 -28.15625 80.53125 -23.625 C 80.53125 -18.96875 79.097656 -14.726562 76.234375 -10.90625 C 73.367188 -7.09375 69.34375 -4.019531 64.15625 -1.6875 C 58.96875 0.632812 52.796875 1.796875 45.640625 1.796875 Z M 45.640625 1.796875 "/></g></g></g><g fill="#a47764" fill-opacity="1"><g transform="translate(1005.449084, 1134.031374)"><g><path d="M 57.796875 -18.25 C 59.347656 -19.5625 60.691406 -19.738281 61.828125 -18.78125 C 62.960938 -17.832031 63.234375 -16.523438 62.640625 -14.859375 C 61.796875 -12.585938 60.269531 -10.140625 58.0625 -7.515625 C 55.863281 -4.890625 53.003906 -2.679688 49.484375 -0.890625 C 45.960938 0.898438 41.816406 1.796875 37.046875 1.796875 C 29.410156 1.796875 23.59375 -0.5 19.59375 -5.09375 C 15.59375 -9.6875 13.59375 -16.335938 13.59375 -25.046875 L 13.59375 -32.390625 C 13.59375 -41.578125 13.648438 -49.898438 13.765625 -57.359375 C 13.890625 -64.816406 14.070312 -71.109375 14.3125 -76.234375 L 8.40625 -76.234375 C 6.382812 -76.234375 4.953125 -76.5625 4.109375 -77.21875 C 3.273438 -77.875 2.859375 -78.859375 2.859375 -80.171875 C 2.859375 -81.960938 3.578125 -83.632812 5.015625 -85.1875 C 8.347656 -88.757812 11.832031 -92.066406 15.46875 -95.109375 C 19.113281 -98.148438 22.609375 -100.804688 25.953125 -103.078125 C 27.617188 -104.148438 28.835938 -104.773438 29.609375 -104.953125 C 30.390625 -105.128906 31.078125 -105.21875 31.671875 -105.21875 C 32.867188 -105.21875 33.734375 -104.769531 34.265625 -103.875 C 34.804688 -102.988281 35.015625 -101.890625 34.890625 -100.578125 C 34.773438 -98.421875 34.65625 -96.179688 34.53125 -93.859375 C 34.414062 -91.535156 34.300781 -88.878906 34.1875 -85.890625 L 52.078125 -85.890625 C 53.628906 -85.890625 54.941406 -85.59375 56.015625 -85 C 57.085938 -84.40625 57.382812 -82.914062 56.90625 -80.53125 C 56.425781 -78.019531 55.5 -76.46875 54.125 -75.875 C 52.757812 -75.28125 51.238281 -75.039062 49.5625 -75.15625 L 34 -75.703125 C 33.882812 -70.804688 33.828125 -64.867188 33.828125 -57.890625 C 33.828125 -50.910156 33.707031 -42.410156 33.46875 -32.390625 C 33.34375 -25.472656 34.054688 -20.460938 35.609375 -17.359375 C 37.160156 -14.253906 40.144531 -12.703125 44.5625 -12.703125 C 46.945312 -12.703125 49.332031 -13.269531 51.71875 -14.40625 C 54.101562 -15.539062 56.128906 -16.820312 57.796875 -18.25 Z M 57.796875 -18.25 "/></g></g></g><g fill="#a47764" fill-opacity="1"><g transform="translate(1073.429946, 1134.031374)"><g><path d="M 95.734375 -83.03125 L 95.5625 -58.34375 L 95.375 -25.234375 C 95.375 -21.890625 95.910156 -19.441406 96.984375 -17.890625 C 98.066406 -16.335938 99.320312 -15.265625 100.75 -14.671875 C 102.175781 -14.078125 103.425781 -13.507812 104.5 -12.96875 C 105.582031 -12.4375 106.125 -11.515625 106.125 -10.203125 C 106.125 -8.296875 104.332031 -6.328125 100.75 -4.296875 C 98.363281 -2.984375 95.347656 -1.671875 91.703125 -0.359375 C 88.066406 0.953125 85.054688 1.609375 82.671875 1.609375 C 80.410156 1.609375 78.769531 0.773438 77.75 -0.890625 C 76.738281 -2.566406 76.113281 -5.070312 75.875 -8.40625 L 75.703125 -14.140625 C 72.003906 -9.003906 67.46875 -5.09375 62.09375 -2.40625 C 56.726562 0.269531 51.597656 1.609375 46.703125 1.609375 C 37.273438 1.609375 29.816406 -1.367188 24.328125 -7.328125 C 18.847656 -13.296875 16.109375 -22.25 16.109375 -34.1875 L 16.109375 -58.34375 C 16.109375 -61.914062 15.6875 -64.566406 14.84375 -66.296875 C 14.007812 -68.023438 13.023438 -69.335938 11.890625 -70.234375 C 10.765625 -71.128906 9.753906 -71.90625 8.859375 -72.5625 C 7.960938 -73.21875 7.515625 -74.265625 7.515625 -75.703125 C 7.515625 -76.773438 7.84375 -77.664062 8.5 -78.375 C 9.15625 -79.09375 10.554688 -79.929688 12.703125 -80.890625 C 16.640625 -82.679688 20.632812 -84.234375 24.6875 -85.546875 C 28.75 -86.859375 31.4375 -87.570312 32.75 -87.6875 C 35.25 -87.925781 36.5 -86.375 36.5 -83.03125 L 36.328125 -58.34375 L 36.328125 -35.796875 C 36.328125 -28.398438 37.578125 -22.460938 40.078125 -17.984375 C 42.585938 -13.515625 46.945312 -11.335938 53.15625 -11.453125 C 56.488281 -11.566406 59.796875 -12.609375 63.078125 -14.578125 C 66.359375 -16.546875 69.160156 -19.378906 71.484375 -23.078125 C 73.816406 -26.773438 75.101562 -31.132812 75.34375 -36.15625 L 75.15625 -58.34375 C 75.15625 -61.914062 74.738281 -64.566406 73.90625 -66.296875 C 73.070312 -68.023438 72.085938 -69.335938 70.953125 -70.234375 C 69.816406 -71.128906 68.800781 -71.90625 67.90625 -72.5625 C 67.019531 -73.21875 66.578125 -74.265625 66.578125 -75.703125 C 66.578125 -76.773438 66.929688 -77.664062 67.640625 -78.375 C 68.359375 -79.09375 69.789062 -79.929688 71.9375 -80.890625 C 75.757812 -82.679688 79.695312 -84.234375 83.75 -85.546875 C 87.800781 -86.859375 90.484375 -87.570312 91.796875 -87.6875 C 94.421875 -87.800781 95.734375 -86.25 95.734375 -83.03125 Z M 95.734375 -83.03125 "/></g></g></g><g fill="#a47764" fill-opacity="1"><g transform="translate(1188.460277, 1134.031374)"><g><path d="M 93.40625 -121.328125 L 93.234375 -96.8125 L 93.0625 -25.234375 C 93.0625 -21.890625 93.597656 -19.441406 94.671875 -17.890625 C 95.742188 -16.335938 96.960938 -15.234375 98.328125 -14.578125 C 99.703125 -13.921875 100.925781 -13.320312 102 -12.78125 C 103.070312 -12.25 103.609375 -11.328125 103.609375 -10.015625 C 103.609375 -8.109375 101.878906 -6.203125 98.421875 -4.296875 C 95.921875 -2.984375 92.878906 -1.671875 89.296875 -0.359375 C 85.710938 0.953125 82.726562 1.609375 80.34375 1.609375 C 75.9375 1.609375 73.671875 -1.671875 73.546875 -8.234375 L 73.375 -13.78125 C 70.382812 -9.488281 66.382812 -5.789062 61.375 -2.6875 C 56.363281 0.414062 50.28125 1.910156 43.125 1.796875 C 35.726562 1.671875 29.253906 -0.175781 23.703125 -3.75 C 18.160156 -7.332031 13.835938 -12.164062 10.734375 -18.25 C 7.628906 -24.332031 6.078125 -31.191406 6.078125 -38.828125 C 6.078125 -46.222656 7.359375 -52.90625 9.921875 -58.875 C 12.492188 -64.84375 15.925781 -69.972656 20.21875 -74.265625 C 24.507812 -78.554688 29.335938 -81.863281 34.703125 -84.1875 C 40.078125 -86.519531 45.507812 -87.6875 51 -87.6875 C 59.46875 -87.6875 66.804688 -85.539062 73.015625 -81.25 L 73.015625 -96.640625 C 73.015625 -100.210938 72.566406 -102.894531 71.671875 -104.6875 C 70.773438 -106.476562 69.757812 -107.789062 68.625 -108.625 C 67.488281 -109.457031 66.472656 -110.234375 65.578125 -110.953125 C 64.691406 -111.671875 64.25 -112.6875 64.25 -114 C 64.25 -115.070312 64.601562 -115.960938 65.3125 -116.671875 C 66.03125 -117.390625 67.460938 -118.226562 69.609375 -119.1875 C 73.429688 -120.96875 77.367188 -122.546875 81.421875 -123.921875 C 85.484375 -125.296875 88.226562 -125.984375 89.65625 -125.984375 C 92.15625 -126.222656 93.40625 -124.671875 93.40625 -121.328125 Z M 51.359375 -11.8125 C 55.648438 -11.8125 59.347656 -12.851562 62.453125 -14.9375 C 65.554688 -17.03125 67.972656 -19.6875 69.703125 -22.90625 C 71.429688 -26.125 72.472656 -29.523438 72.828125 -33.109375 L 72.828125 -42.59375 C 72.710938 -46.289062 72.328125 -50.078125 71.671875 -53.953125 C 71.015625 -57.828125 69.851562 -61.257812 68.1875 -64.25 C 63.40625 -73.195312 56.539062 -77.671875 47.59375 -77.671875 C 40.675781 -77.671875 35.28125 -74.953125 31.40625 -69.515625 C 27.53125 -64.085938 25.59375 -57.082031 25.59375 -48.5 C 25.59375 -40.5 26.84375 -33.785156 29.34375 -28.359375 C 31.851562 -22.929688 35.078125 -18.816406 39.015625 -16.015625 C 42.953125 -13.210938 47.066406 -11.8125 51.359375 -11.8125 Z M 51.359375 -11.8125 "/></g></g></g><g fill="#a47764" fill-opacity="1"><g transform="translate(1296.334757, 1134.031374)"><g><path d="M 20.40625 -99.3125 C 17.414062 -99.4375 15.054688 -100.453125 13.328125 -102.359375 C 11.597656 -104.265625 10.796875 -106.53125 10.921875 -109.15625 C 11.035156 -111.664062 11.925781 -114.113281 13.59375 -116.5 C 15.269531 -118.882812 17.421875 -120.820312 20.046875 -122.3125 C 22.671875 -123.800781 25.351562 -124.425781 28.09375 -124.1875 C 30.84375 -124.070312 33.171875 -123.03125 35.078125 -121.0625 C 36.984375 -119.09375 37.878906 -116.738281 37.765625 -114 C 37.640625 -111.488281 36.679688 -109.097656 34.890625 -106.828125 C 33.109375 -104.566406 30.929688 -102.71875 28.359375 -101.28125 C 25.796875 -99.851562 23.144531 -99.195312 20.40625 -99.3125 Z M 16.46875 -24.15625 L 16.28125 -58.515625 C 16.28125 -61.972656 15.863281 -64.597656 15.03125 -66.390625 C 14.195312 -68.179688 13.210938 -69.492188 12.078125 -70.328125 C 10.941406 -71.160156 9.925781 -71.9375 9.03125 -72.65625 C 8.132812 -73.375 7.6875 -74.445312 7.6875 -75.875 C 7.6875 -76.945312 8.046875 -77.84375 8.765625 -78.5625 C 9.484375 -79.28125 10.914062 -80.113281 13.0625 -81.0625 C 16.882812 -82.851562 20.820312 -84.40625 24.875 -85.71875 C 28.925781 -87.03125 31.609375 -87.742188 32.921875 -87.859375 C 35.546875 -87.984375 36.859375 -86.4375 36.859375 -83.21875 L 36.6875 -58.515625 L 36.6875 -24.15625 C 36.6875 -19.976562 37.101562 -16.875 37.9375 -14.84375 C 38.769531 -12.820312 39.753906 -11.332031 40.890625 -10.375 C 42.023438 -9.425781 43.007812 -8.5625 43.84375 -7.78125 C 44.675781 -7.007812 45.09375 -5.726562 45.09375 -3.9375 C 45.09375 -2.382812 44.46875 -1.335938 43.21875 -0.796875 C 41.96875 -0.265625 40.148438 0 37.765625 0 L 15.21875 0 C 12.945312 0 11.125 -0.296875 9.75 -0.890625 C 8.375 -1.492188 7.6875 -2.566406 7.6875 -4.109375 C 7.6875 -5.785156 8.132812 -7.007812 9.03125 -7.78125 C 9.925781 -8.5625 10.941406 -9.425781 12.078125 -10.375 C 13.210938 -11.332031 14.226562 -12.820312 15.125 -14.84375 C 16.019531 -16.875 16.46875 -19.976562 16.46875 -24.15625 Z M 16.46875 -24.15625 "/></g></g></g><g fill="#a47764" fill-opacity="1"><g transform="translate(1350.361801, 1134.031374)"><g><path d="M 48.140625 1.796875 C 40.148438 1.796875 32.988281 0.0976562 26.65625 -3.296875 C 20.332031 -6.703125 15.320312 -11.503906 11.625 -17.703125 C 7.925781 -23.910156 6.078125 -31.253906 6.078125 -39.734375 C 6.078125 -48.679688 8.164062 -56.789062 12.34375 -64.0625 C 16.519531 -71.34375 22.242188 -77.097656 29.515625 -81.328125 C 36.796875 -85.566406 45.09375 -87.6875 54.40625 -87.6875 C 62.519531 -87.6875 69.675781 -85.804688 75.875 -82.046875 C 82.082031 -78.285156 86.941406 -73.210938 90.453125 -66.828125 C 93.972656 -60.453125 95.734375 -53.269531 95.734375 -45.28125 C 95.734375 -36.445312 93.707031 -28.453125 89.65625 -21.296875 C 85.601562 -14.140625 79.992188 -8.5 72.828125 -4.375 C 65.671875 -0.257812 57.441406 1.796875 48.140625 1.796875 Z M 54.765625 -8.40625 C 61.679688 -8.40625 66.925781 -10.941406 70.5 -16.015625 C 74.082031 -21.085938 75.875 -27.320312 75.875 -34.71875 C 75.875 -41.875 74.648438 -48.703125 72.203125 -55.203125 C 69.765625 -61.703125 66.394531 -67.007812 62.09375 -71.125 C 57.800781 -75.25 52.851562 -77.3125 47.25 -77.3125 C 42.46875 -77.3125 38.523438 -76.054688 35.421875 -73.546875 C 32.328125 -71.046875 30.003906 -67.707031 28.453125 -63.53125 C 26.898438 -59.351562 26.125 -54.757812 26.125 -49.75 C 26.125 -42.351562 27.347656 -35.519531 29.796875 -29.25 C 32.242188 -22.988281 35.613281 -17.945312 39.90625 -14.125 C 44.195312 -10.3125 49.148438 -8.40625 54.765625 -8.40625 Z M 54.765625 -8.40625 "/></g></g></g></svg>