<svg xmlns="http://www.w3.org/2000/svg" xmlns:xlink="http://www.w3.org/1999/xlink" width="735" zoomAndPan="magnify" viewBox="0 0 551.25 317.999988" height="424" preserveAspectRatio="xMidYMid meet" version="1.0"><defs><clipPath id="e0993a3dd3"><path d="M 0 0.214844 L 550.5 0.214844 L 550.5 317.78125 L 0 317.78125 Z M 0 0.214844 " clip-rule="nonzero"/></clipPath></defs><path fill="#f8edc6" d="M 31.828125 76.824219 C 31.828125 76.824219 33.761719 33.191406 70.613281 37.066406 C 107.464844 40.941406 70.613281 36.824219 70.613281 36.824219 C 70.613281 36.824219 108.191406 38.035156 121.265625 27.863281 C 121.265625 27.863281 139.449219 16.726562 175.792969 31.980469 C 175.792969 31.980469 231.773438 35.128906 246.324219 29.800781 C 246.324219 29.800781 282.933594 17.429688 315.160156 34.886719 C 315.160156 34.886719 379.152344 34.886719 397.820312 42.636719 C 397.820312 42.636719 452.832031 30.023438 475.617188 44.089844 C 475.617188 44.089844 490.410156 48.933594 501.789062 43.847656 C 501.789062 43.847656 500.578125 87.960938 511.476562 105.902344 C 511.476562 105.902344 526.027344 140.816406 514.382812 174.011719 L 516.078125 227.085938 L 520.195312 268.296875 C 520.195312 268.296875 507.578125 287.929688 453.777344 274.347656 L 396.105469 279.191406 C 396.105469 279.191406 369.929688 268.296875 343.757812 279.191406 C 343.757812 279.191406 324.121094 289.605469 296.492188 282.339844 C 296.492188 282.339844 239.785156 295.921875 221.363281 275.316406 C 221.363281 275.316406 206.085938 269.503906 182.089844 276.527344 L 103.566406 282.582031 C 103.566406 282.582031 72.550781 288.394531 55.820312 280.644531 C 55.820312 280.644531 39.816406 278.464844 37.152344 285.003906 C 37.152344 285.003906 24.296875 255.921875 26.257812 223.675781 C 26.257812 223.675781 27.226562 186.097656 33.277344 168.90625 C 39.332031 151.710938 27.46875 97.648438 27.46875 97.648438 Z M 31.828125 76.824219 " fill-opacity="1" fill-rule="nonzero"/><g clip-path="url(#e0993a3dd3)"><path fill="#483124" d="M 0.0820312 105.175781 L 112.550781 0.214844 L 119.417969 17.167969 C 120.277344 19.28125 122.191406 20.753906 124.457031 21.0625 L 146.625 23.925781 L 18.265625 141.035156 L 17.671875 122.898438 C 17.582031 120.253906 16.328125 117.789062 14.261719 116.183594 Z M 403.875 281.855469 L 516.339844 176.894531 L 523.210938 193.847656 C 524.066406 195.960938 525.984375 197.433594 528.25 197.742188 L 550.417969 200.605469 L 422.058594 317.738281 L 421.464844 299.597656 C 421.375 296.957031 420.121094 294.492188 418.050781 292.882812 Z M 403.875 281.855469 " fill-opacity="1" fill-rule="nonzero"/></g></svg>