<svg xmlns="http://www.w3.org/2000/svg" xmlns:xlink="http://www.w3.org/1999/xlink" width="300" zoomAndPan="magnify" viewBox="0 0 224.87999 269.999989" height="360" preserveAspectRatio="xMidYMid meet" version="1.0"><defs><clipPath id="3399cb3a6a"><path d="M 7.617188 195 L 217 195 L 217 269.925781 L 7.617188 269.925781 Z M 7.617188 195 " clip-rule="nonzero"/></clipPath><clipPath id="d30c3761c5"><path d="M 86 0.0703125 L 95 0.0703125 L 95 25 L 86 25 Z M 86 0.0703125 " clip-rule="nonzero"/></clipPath></defs><path fill="#000200" d="M 89.753906 73.054688 C 87.582031 72.328125 85.09375 73.449219 83.730469 75.292969 C 82.371094 77.136719 81.980469 79.535156 82.066406 81.824219 C 82.15625 84.113281 82.683594 86.359375 82.984375 88.628906 C 83.289062 90.898438 83.351562 93.269531 82.546875 95.414062 C 81.414062 98.441406 78.597656 100.984375 78.796875 104.210938 C 78.914062 106.171875 80.1875 107.898438 81.707031 109.148438 C 80.03125 108 79.796875 105.257812 81.25 103.84375 C 81.765625 106 83.863281 107.34375 85.152344 109.148438 C 86.597656 111.175781 86.933594 114.101562 85.507812 116.140625 C 87.898438 115.398438 89.824219 113.304688 90.363281 110.859375 C 90.742188 109.148438 90.480469 107.367188 90.496094 105.617188 C 90.542969 101.117188 92.4375 96.824219 92.75 92.339844 C 92.9375 89.714844 92.578125 87.089844 92.222656 84.488281 C 91.8125 81.488281 91.402344 78.488281 90.988281 75.492188 " fill-opacity="1" fill-rule="nonzero"/><g clip-path="url(#3399cb3a6a)"><path fill="#a17d60" d="M 8.808594 208.296875 C 22.460938 205.648438 71.078125 196.59375 75.183594 195.828125 C 75.363281 195.792969 75.550781 195.808594 75.726562 195.867188 L 216.257812 243.246094 C 217.214844 243.570312 217.25 244.90625 216.316406 245.28125 L 155.914062 269.425781 C 154.703125 269.910156 153.347656 269.902344 152.136719 269.40625 L 8.605469 210.367188 C 7.609375 209.957031 7.753906 208.503906 8.808594 208.300781 Z M 8.808594 208.296875 " fill-opacity="1" fill-rule="nonzero"/></g><g clip-path="url(#d30c3761c5)"><path fill="#d49c7c" d="M 88.019531 21.875 C 87.078125 21.457031 86.550781 20.417969 86.410156 19.394531 C 86.273438 18.375 86.453125 17.34375 86.542969 16.316406 C 86.6875 14.582031 86.5625 12.828125 86.171875 11.132812 C 86.121094 10.910156 86.066406 10.675781 86.132812 10.453125 C 86.199219 10.234375 86.4375 10.050781 86.652344 10.132812 C 86.761719 10.171875 86.839844 10.269531 86.90625 10.367188 C 87.375 11.015625 87.738281 11.738281 87.980469 12.5 C 87.734375 9.648438 87.484375 6.792969 87.238281 3.941406 C 87.203125 3.566406 87.175781 3.175781 87.324219 2.832031 C 87.546875 2.308594 88.136719 1.996094 88.320312 1.460938 C 88.449219 1.085938 88.382812 0.613281 88.683594 0.351562 C 88.984375 0.09375 89.464844 0.238281 89.765625 0.492188 C 90.070312 0.746094 90.292969 1.097656 90.632812 1.300781 C 91.015625 1.53125 91.488281 1.550781 91.894531 1.734375 C 92.71875 2.109375 93.074219 3.070312 93.300781 3.945312 C 94.324219 7.894531 94.359375 12.019531 94.390625 16.09375 C 94.398438 16.84375 94.402344 17.59375 94.308594 18.339844 C 93.976562 20.949219 92.324219 23.363281 90.011719 24.621094 " fill-opacity="1" fill-rule="nonzero"/></g><path fill="#d49c7c" d="M 98.636719 23.980469 C 98.636719 23.980469 116.484375 49.929688 119.050781 54.238281 C 121.613281 58.546875 120.691406 59.058594 120.484375 62.136719 C 120.484375 62.136719 118.535156 83.367188 118.640625 87.570312 C 118.742188 91.777344 117.304688 93.621094 117.101562 96.390625 L 133.816406 105.828125 C 133.816406 105.828125 131.765625 97.929688 131.460938 95.058594 C 131.152344 92.1875 131.445312 56.644531 130.640625 53.210938 C 129.40625 47.980469 110.023438 27.671875 104.484375 21.109375 Z M 98.636719 23.980469 " fill-opacity="1" fill-rule="nonzero"/><path fill="#d49c7c" d="M 99.789062 25.664062 C 98.710938 24.027344 97.523438 22.300781 95.707031 21.558594 C 95.164062 21.339844 94.570312 21.207031 94.121094 20.835938 C 93.726562 20.515625 93.488281 20.050781 93.277344 19.589844 C 91.375 15.464844 91.019531 10.648438 92.292969 6.289062 C 92.425781 5.839844 92.671875 5.316406 93.140625 5.292969 C 93.394531 5.277344 93.628906 5.429688 93.839844 5.578125 C 94.738281 6.210938 95.621094 6.867188 96.484375 7.550781 C 97.058594 8.003906 97.632812 8.472656 98.074219 9.058594 C 98.6875 9.878906 99.003906 10.878906 99.355469 11.84375 C 101.054688 16.511719 103.765625 20.8125 107.253906 24.351562 " fill-opacity="1" fill-rule="nonzero"/><path fill="#d49c7c" d="M 131.273438 102.644531 C 130.511719 100.632812 128.75 99.125 126.792969 98.242188 C 124.832031 97.359375 122.671875 97.035156 120.539062 96.800781 C 119.363281 96.671875 118.140625 96.558594 117.125 95.957031 C 117.011719 95.890625 116.902344 95.816406 116.796875 95.742188 C 116.035156 94.339844 115.363281 92.894531 114.785156 91.398438 C 114.394531 90.382812 114.058594 89.195312 114.605469 88.253906 C 114.835938 87.859375 115.199219 87.5625 115.527344 87.246094 C 116.195312 86.601562 116.75 85.84375 117.160156 85.015625 C 117.511719 84.316406 117.757812 83.546875 117.730469 82.765625 C 117.703125 81.957031 117.386719 81.191406 117.0625 80.449219 C 115.953125 77.910156 114.707031 75.425781 113.335938 73.015625 C 112.726562 71.949219 112.085938 70.886719 111.21875 70.011719 C 110.390625 69.175781 109.375 68.542969 108.308594 68.035156 C 105.160156 66.53125 101.511719 66.105469 98.097656 66.828125 C 97.683594 66.671875 97.183594 66.675781 96.78125 66.871094 C 96.015625 67.246094 95.570312 68.050781 95.25 68.835938 C 93.265625 73.679688 94.277344 79.183594 95.578125 84.253906 C 96.890625 89.351562 100.597656 86.269531 103.355469 90.75 C 104.417969 92.46875 105.101562 95.980469 102.945312 99.363281 C 100.550781 103.128906 110.722656 110.644531 114.644531 112.769531 C 118.570312 114.890625 123.445312 115.644531 127.519531 113.824219 C 128.945312 113.191406 130.285156 112.199219 130.9375 110.785156 C 131.308594 109.988281 131.441406 109.105469 131.550781 108.234375 C 131.789062 106.363281 131.941406 104.40625 131.273438 102.640625 Z M 131.273438 102.644531 " fill-opacity="1" fill-rule="nonzero"/><path fill="#000200" d="M 96.703125 67.019531 C 97.644531 66.46875 98.574219 65.839844 99.640625 65.605469 C 100.707031 65.375 101.976562 65.652344 102.550781 66.582031 C 101.925781 66.433594 101.261719 66.683594 100.769531 67.09375 C 100.277344 67.503906 99.933594 68.0625 99.628906 68.625 C 98.097656 71.441406 97.285156 74.652344 97.300781 77.859375 C 96.8125 77.382812 96.542969 76.726562 96.332031 76.078125 C 95.398438 73.207031 95.359375 70.050781 96.222656 67.15625 " fill-opacity="1" fill-rule="nonzero"/><path fill="#000200" d="M 101.753906 66.789062 C 101.136719 66.433594 100.410156 66.316406 99.710938 66.445312 C 99.605469 66.46875 99.542969 66.597656 99.570312 66.699219 C 99.601562 66.8125 99.710938 66.863281 99.820312 66.84375 C 100.410156 66.730469 101.03125 66.84375 101.546875 67.144531 C 101.777344 67.277344 101.984375 66.921875 101.753906 66.789062 Z M 101.753906 66.789062 " fill-opacity="1" fill-rule="nonzero"/><path fill="#000200" d="M 100.761719 67.910156 C 99.996094 67.382812 99.074219 67.800781 98.351562 68.1875 C 98.121094 68.308594 98.328125 68.664062 98.558594 68.539062 C 99.152344 68.226562 99.921875 67.828125 100.554688 68.265625 C 100.648438 68.328125 100.785156 68.28125 100.835938 68.191406 C 100.894531 68.089844 100.855469 67.972656 100.761719 67.910156 Z M 100.761719 67.910156 " fill-opacity="1" fill-rule="nonzero"/><path fill="#000200" d="M 99.652344 69.183594 C 98.996094 69.230469 98.347656 69.363281 97.730469 69.582031 C 97.625 69.621094 97.554688 69.722656 97.585938 69.835938 C 97.613281 69.9375 97.734375 70.015625 97.835938 69.980469 C 98.421875 69.769531 99.035156 69.636719 99.652344 69.59375 C 99.765625 69.585938 99.859375 69.503906 99.859375 69.386719 C 99.859375 69.28125 99.765625 69.175781 99.652344 69.183594 Z M 99.652344 69.183594 " fill-opacity="1" fill-rule="nonzero"/><path fill="#000200" d="M 98.960938 70.960938 C 98.25 70.996094 97.570312 71.289062 97.058594 71.785156 C 96.867188 71.96875 97.160156 72.257812 97.347656 72.074219 C 97.78125 71.65625 98.359375 71.402344 98.960938 71.371094 C 99.070312 71.367188 99.164062 71.28125 99.164062 71.167969 C 99.164062 71.058594 99.070312 70.957031 98.960938 70.960938 Z M 98.960938 70.960938 " fill-opacity="1" fill-rule="nonzero"/><path fill="#000200" d="M 98.421875 72.628906 C 97.828125 72.839844 97.289062 73.210938 96.890625 73.703125 C 96.820312 73.789062 96.804688 73.910156 96.890625 73.992188 C 96.960938 74.0625 97.109375 74.078125 97.179688 73.992188 C 97.539062 73.550781 98.007812 73.210938 98.53125 73.023438 C 98.636719 72.984375 98.707031 72.882812 98.675781 72.769531 C 98.648438 72.671875 98.527344 72.589844 98.421875 72.628906 Z M 98.421875 72.628906 " fill-opacity="1" fill-rule="nonzero"/><path fill="#000200" d="M 98.222656 74.625 C 97.394531 75.058594 97.011719 75.972656 96.6875 76.796875 C 96.648438 76.902344 96.730469 77.023438 96.832031 77.050781 C 96.949219 77.082031 97.042969 77.011719 97.082031 76.90625 C 97.367188 76.179688 97.703125 75.359375 98.429688 74.976562 C 98.664062 74.855469 98.457031 74.5 98.222656 74.625 Z M 98.222656 74.625 " fill-opacity="1" fill-rule="nonzero"/><path fill="#000200" d="M 98.378906 84.320312 C 99.949219 85.726562 101.699219 87.378906 102.226562 89.417969 C 101.367188 88.449219 99.734375 87.960938 98.457031 88.171875 C 98.179688 88.21875 97.835938 88.269531 97.675781 88.039062 " fill-opacity="1" fill-rule="nonzero"/><path fill="#d49c7c" d="M 111.253906 148.332031 C 111.253906 148.332031 109.714844 140.1875 110.125 136.289062 C 110.125 136.289062 132.074219 118.75 143.152344 123.980469 C 143.152344 123.980469 144.484375 127.058594 145.203125 133.417969 C 145.921875 139.777344 146.230469 149.007812 143.972656 158.136719 C 143.972656 158.136719 112.484375 158.226562 111.253906 148.332031 Z M 111.253906 148.332031 " fill-opacity="1" fill-rule="nonzero"/><path fill="#d49c7c" d="M 99.152344 122.546875 C 99.152344 122.546875 95.972656 119.570312 93.613281 114.339844 C 93.613281 114.339844 89.921875 110.957031 88.792969 98.957031 C 87.664062 86.957031 88.792969 60.199219 88.792969 60.199219 C 88.792969 60.199219 85.613281 56.699219 86.125 45.3125 C 86.636719 33.929688 87.664062 20.902344 87.664062 20.902344 L 92.609375 20.902344 C 92.609375 20.902344 96.074219 48.390625 97.511719 53.210938 C 97.511719 53.210938 97.921875 55.261719 97.714844 61.210938 C 97.511719 67.160156 98.433594 93.519531 100.585938 96.597656 C 102.742188 99.671875 105.101562 99.570312 106.125 100.699219 C 107.152344 101.828125 109.921875 120.800781 99.152344 122.546875 Z M 99.152344 122.546875 " fill-opacity="1" fill-rule="nonzero"/><path fill="#483124" d="M 142.640625 120.597656 C 142.640625 120.597656 142.230469 111.777344 141.40625 109.929688 C 140.585938 108.082031 131.753906 103.144531 131.753906 103.144531 C 131.753906 103.144531 122.46875 96 117.273438 95.171875 L 116.804688 95.863281 C 116.820312 95.886719 116.835938 95.90625 116.851562 95.929688 C 116.960938 96.070312 117.121094 96.242188 117.261719 96.386719 C 117.304688 96.429688 117.347656 96.472656 117.390625 96.515625 C 119.734375 97.496094 126.570312 100.472656 129.195312 102.980469 C 132.382812 106.03125 130.230469 109.109375 129.410156 110.03125 C 128.589844 110.957031 119.5625 109.007812 117.511719 107.980469 C 115.460938 106.957031 111.5625 105.109375 110.84375 104.390625 C 110.125 103.671875 107.507812 99.457031 102.304688 98.488281 C 102.304688 98.488281 106.960938 101.457031 106.800781 102.820312 C 106.640625 104.183594 106.433594 111.46875 104.792969 113.828125 C 103.152344 116.183594 98.328125 120.800781 97.972656 122.542969 C 97.613281 124.289062 106.539062 131.878906 106.539062 131.878906 C 106.539062 131.878906 109.167969 138.773438 110.058594 140.144531 C 110.058594 140.144531 123.71875 129.929688 131.28125 128.492188 C 138.84375 127.058594 138.5 127.703125 144.367188 128.203125 C 144.367188 128.203125 143.769531 123.363281 142.640625 120.597656 Z M 142.640625 120.597656 " fill-opacity="1" fill-rule="nonzero"/><path fill="#d49c7c" d="M 79.765625 205.007812 C 79.765625 205.007812 74.84375 202.238281 72.28125 202.957031 C 69.714844 203.675781 62.421875 204.886719 58.476562 203.921875 C 54.535156 202.957031 54.15625 204.359375 53.78125 202.835938 C 53.40625 201.316406 54.84375 200.699219 56.996094 200.390625 C 59.152344 200.085938 63.460938 197.828125 64.382812 196.390625 C 65.304688 194.957031 68.894531 189.417969 71.871094 190.546875 C 74.84375 191.675781 74.695312 194.972656 75.460938 195.777344 C 77.304688 197.726562 83.5625 198.339844 83.5625 198.339844 Z M 79.765625 205.007812 " fill-opacity="1" fill-rule="nonzero"/><path fill="#d49c7c" d="M 137.703125 213.636719 C 137.613281 214.445312 136.996094 226.546875 136.484375 228.90625 C 135.972656 231.265625 130.84375 242.035156 134.535156 243.46875 C 138.230469 244.90625 141.613281 245.929688 144.792969 247.570312 C 147.972656 249.210938 149.921875 249.625 152.382812 248.90625 C 152.382812 248.90625 153.714844 251.058594 156.484375 251.058594 C 159.253906 251.058594 167.765625 251.367188 168.484375 249.625 C 169.203125 247.878906 167.433594 245.148438 165.242188 244.054688 C 163.046875 242.957031 161.203125 241.625 158.023438 239.367188 C 154.84375 237.109375 148.894531 232.597656 148.074219 229.210938 C 147.253906 225.828125 150.464844 213.636719 150.464844 213.636719 Z M 137.703125 213.636719 " fill-opacity="1" fill-rule="nonzero"/><path fill="#483124" d="M 140.175781 157.316406 C 140.175781 157.316406 118.492188 153.6875 111.078125 147.347656 C 111.078125 147.347656 110.808594 146.660156 110.054688 148.65625 C 109.304688 150.648438 106.640625 156.597656 106.023438 158.441406 C 106.023438 158.441406 95.871094 168.699219 96.382812 175.261719 C 96.894531 181.828125 97.613281 186.957031 101.304688 189.722656 C 104.996094 192.492188 107.871094 193.929688 107.871094 193.929688 C 107.871094 193.929688 103.972656 199.878906 101.921875 201.210938 C 101.921875 201.210938 100.691406 198.648438 96.996094 198.542969 C 93.304688 198.441406 80.894531 197.519531 80.894531 197.519531 C 80.894531 197.519531 75.871094 201.007812 79.050781 205.722656 C 79.050781 205.722656 86.023438 210.03125 91.5625 211.878906 C 91.5625 211.878906 95.96875 214.746094 97.921875 216.699219 C 99.152344 217.929688 102.226562 219.46875 104.28125 219.46875 C 107.484375 219.46875 112.175781 218.132812 116.382812 213.929688 C 120.585938 209.722656 133.566406 195.613281 135.5625 192.902344 C 138.433594 189.007812 142.742188 180.492188 142.742188 180.492188 " fill-opacity="1" fill-rule="nonzero"/><path fill="#483124" d="M 142.742188 180 C 142.742188 180 140.585938 187.675781 139.664062 196.289062 C 138.742188 204.90625 137.511719 215.265625 137.511719 215.265625 C 137.511719 215.265625 142.433594 221.210938 150.023438 217.417969 C 150.023438 217.417969 157.820312 191.777344 159.871094 187.570312 C 161.921875 183.367188 166.535156 172.597656 164.894531 164.597656 C 163.253906 156.597656 156.484375 154.339844 154.640625 154.851562 C 152.792969 155.367188 133.96875 157.605469 133.96875 157.605469 Z M 142.742188 180 " fill-opacity="1" fill-rule="nonzero"/><path fill="#000200" d="M 105.703125 74.363281 C 106.230469 74.363281 106.230469 73.542969 105.703125 73.542969 C 105.171875 73.542969 105.171875 74.363281 105.703125 74.363281 Z M 105.703125 74.363281 " fill-opacity="1" fill-rule="nonzero"/><path fill="#000200" d="M 111.910156 71.613281 L 111.855469 71.613281 C 111.800781 71.613281 111.746094 71.625 111.699219 71.648438 C 111.648438 71.667969 111.601562 71.695312 111.566406 71.734375 C 111.527344 71.773438 111.496094 71.816406 111.480469 71.867188 C 111.457031 71.917969 111.441406 71.96875 111.445312 72.023438 L 111.460938 72.132812 C 111.480469 72.203125 111.515625 72.265625 111.566406 72.316406 L 111.648438 72.378906 C 111.710938 72.417969 111.78125 72.4375 111.855469 72.4375 L 111.910156 72.4375 C 111.964844 72.4375 112.019531 72.425781 112.066406 72.402344 C 112.117188 72.386719 112.164062 72.355469 112.199219 72.316406 C 112.238281 72.28125 112.269531 72.234375 112.285156 72.183594 C 112.308594 72.136719 112.324219 72.082031 112.320312 72.027344 L 112.304688 71.917969 C 112.285156 71.847656 112.25 71.789062 112.199219 71.734375 L 112.117188 71.671875 C 112.054688 71.632812 111.984375 71.617188 111.910156 71.613281 Z M 111.910156 71.613281 " fill-opacity="1" fill-rule="nonzero"/><path fill="#000200" d="M 109.3125 71.867188 C 109.527344 72.714844 110.210938 73.351562 110.988281 73.707031 C 111.410156 73.902344 111.859375 74.03125 112.316406 74.128906 C 112.679688 74.207031 113.136719 74.269531 113.367188 74.59375 C 113.628906 74.957031 113.527344 75.46875 113.449219 75.875 C 113.398438 76.132812 113.796875 76.242188 113.847656 75.980469 C 113.925781 75.574219 114 75.128906 113.878906 74.722656 C 113.746094 74.28125 113.402344 74.011719 112.980469 73.871094 C 112.558594 73.734375 112.097656 73.675781 111.667969 73.535156 C 111.238281 73.394531 110.816406 73.199219 110.46875 72.90625 C 110.121094 72.613281 109.828125 72.21875 109.710938 71.757812 C 109.644531 71.503906 109.25 71.609375 109.316406 71.867188 Z M 109.3125 71.867188 " fill-opacity="1" fill-rule="nonzero"/><path fill="#000200" d="M 110.773438 79.457031 C 111.734375 79.96875 112.945312 79.933594 113.871094 79.347656 C 114.09375 79.207031 113.886719 78.855469 113.664062 78.996094 C 112.863281 79.5 111.816406 79.546875 110.980469 79.101562 C 110.746094 78.976562 110.539062 79.332031 110.773438 79.457031 Z M 110.773438 79.457031 " fill-opacity="1" fill-rule="nonzero"/><path fill="#000200" d="M 103.652344 71.890625 C 103.625 71.761719 103.644531 71.601562 103.703125 71.476562 C 103.773438 71.335938 103.871094 71.222656 104.003906 71.144531 C 104.308594 70.957031 104.703125 71 105.007812 71.164062 C 105.242188 71.289062 105.449219 70.9375 105.214844 70.8125 C 104.777344 70.574219 104.207031 70.523438 103.777344 70.800781 C 103.378906 71.054688 103.152344 71.535156 103.257812 72 C 103.28125 72.105469 103.40625 72.171875 103.507812 72.144531 C 103.621094 72.113281 103.675781 72 103.652344 71.890625 Z M 103.652344 71.890625 " fill-opacity="1" fill-rule="nonzero"/><path fill="#000200" d="M 109.792969 69.886719 C 109.789062 69.867188 109.78125 69.84375 109.777344 69.820312 C 109.777344 69.8125 109.773438 69.800781 109.773438 69.792969 C 109.777344 69.808594 109.777344 69.835938 109.773438 69.804688 C 109.769531 69.757812 109.769531 69.714844 109.773438 69.671875 C 109.773438 69.664062 109.78125 69.628906 109.773438 69.664062 C 109.769531 69.699219 109.773438 69.664062 109.777344 69.65625 C 109.78125 69.632812 109.785156 69.609375 109.792969 69.589844 C 109.796875 69.570312 109.804688 69.546875 109.8125 69.527344 C 109.8125 69.519531 109.820312 69.507812 109.824219 69.5 C 109.808594 69.527344 109.808594 69.535156 109.8125 69.519531 C 109.816406 69.515625 109.820312 69.507812 109.824219 69.503906 C 109.839844 69.46875 109.859375 69.429688 109.882812 69.398438 C 109.890625 69.386719 109.898438 69.378906 109.90625 69.367188 C 109.898438 69.378906 109.878906 69.398438 109.898438 69.371094 C 109.914062 69.359375 109.925781 69.34375 109.941406 69.328125 C 109.957031 69.308594 109.972656 69.296875 109.992188 69.28125 C 109.996094 69.277344 110.023438 69.253906 110 69.273438 C 109.972656 69.296875 110 69.273438 110.007812 69.265625 C 110.027344 69.257812 110.042969 69.246094 110.058594 69.234375 C 110.070312 69.226562 110.082031 69.222656 110.09375 69.21875 C 110.105469 69.210938 110.144531 69.195312 110.089844 69.21875 C 110.140625 69.195312 110.183594 69.171875 110.210938 69.121094 C 110.238281 69.078125 110.25 69.015625 110.234375 68.964844 C 110.203125 68.871094 110.085938 68.777344 109.980469 68.820312 C 109.757812 68.914062 109.574219 69.074219 109.46875 69.296875 C 109.363281 69.515625 109.328125 69.761719 109.402344 69.996094 C 109.429688 70.097656 109.546875 70.171875 109.652344 70.136719 C 109.761719 70.105469 109.828125 69.996094 109.796875 69.886719 Z M 109.792969 69.886719 " fill-opacity="1" fill-rule="nonzero"/><path fill="#000200" d="M 98.160156 76.011719 C 98.261719 77.792969 98.382812 79.570312 98.511719 81.347656 C 98.644531 83.125 98.789062 84.886719 98.949219 86.652344 C 99.109375 88.417969 99.285156 90.203125 99.472656 91.972656 C 99.566406 92.859375 99.664062 93.746094 99.765625 94.632812 C 99.816406 95.070312 99.867188 95.507812 99.917969 95.945312 C 99.941406 96.160156 99.96875 96.375 99.996094 96.589844 C 100.019531 96.78125 100.058594 96.96875 100.160156 97.136719 C 100.359375 97.453125 100.703125 97.652344 100.992188 97.871094 C 101.304688 98.105469 101.605469 98.355469 101.898438 98.613281 C 102.492188 99.136719 103.050781 99.703125 103.5625 100.308594 C 103.691406 100.457031 103.816406 100.609375 103.9375 100.765625 C 104.007812 100.851562 104.15625 100.835938 104.226562 100.765625 C 104.3125 100.679688 104.296875 100.5625 104.226562 100.472656 C 103.738281 99.855469 103.210938 99.277344 102.640625 98.734375 C 102.070312 98.195312 101.46875 97.722656 100.847656 97.257812 C 100.71875 97.160156 100.585938 97.050781 100.503906 96.910156 C 100.410156 96.75 100.398438 96.554688 100.378906 96.375 C 100.324219 95.9375 100.273438 95.5 100.222656 95.058594 C 100.125 94.191406 100.027344 93.324219 99.933594 92.453125 C 99.746094 90.695312 99.570312 88.941406 99.410156 87.183594 C 99.246094 85.425781 99.101562 83.683594 98.96875 81.929688 C 98.835938 80.179688 98.714844 78.425781 98.609375 76.671875 C 98.59375 76.449219 98.582031 76.230469 98.570312 76.011719 C 98.554688 75.75 98.144531 75.746094 98.160156 76.011719 Z M 98.160156 76.011719 " fill-opacity="1" fill-rule="nonzero"/><path fill="#000200" d="M 116.742188 96.050781 C 117.242188 97.207031 117.871094 98.300781 118.554688 99.359375 C 118.894531 99.886719 119.246094 100.40625 119.605469 100.921875 C 119.960938 101.4375 120.285156 101.917969 120.648438 102.394531 C 121.015625 102.871094 121.464844 103.355469 122.019531 103.652344 C 122.253906 103.773438 122.460938 103.421875 122.226562 103.296875 C 121.746094 103.042969 121.371094 102.652344 121.035156 102.230469 C 120.675781 101.773438 120.355469 101.285156 120.027344 100.8125 C 119.324219 99.800781 118.636719 98.78125 118.03125 97.710938 C 117.6875 97.105469 117.371094 96.484375 117.09375 95.84375 C 117.050781 95.742188 116.902344 95.71875 116.8125 95.769531 C 116.710938 95.832031 116.695312 95.949219 116.742188 96.050781 Z M 116.742188 96.050781 " fill-opacity="1" fill-rule="nonzero"/><path fill="#000200" d="M 100.007812 83.695312 C 101.042969 85.070312 102.351562 86.449219 104.125 86.753906 C 105.894531 87.0625 107.582031 86.34375 109.25 85.90625 C 110.183594 85.660156 111.160156 85.480469 112.125 85.640625 C 112.234375 85.65625 112.34375 85.609375 112.378906 85.496094 C 112.402344 85.398438 112.34375 85.261719 112.234375 85.242188 C 110.488281 84.953125 108.816406 85.628906 107.160156 86.074219 C 106.351562 86.292969 105.515625 86.464844 104.671875 86.410156 C 103.828125 86.355469 103.046875 86.039062 102.363281 85.550781 C 101.578125 84.996094 100.9375 84.253906 100.363281 83.488281 C 100.296875 83.402344 100.183594 83.355469 100.082031 83.417969 C 99.996094 83.46875 99.941406 83.609375 100.007812 83.695312 Z M 100.007812 83.695312 " fill-opacity="1" fill-rule="nonzero"/><path fill="#000200" d="M 87.816406 12.734375 C 88.035156 13.828125 88.140625 14.9375 88.132812 16.054688 C 88.128906 16.316406 88.539062 16.316406 88.542969 16.054688 C 88.550781 14.902344 88.441406 13.753906 88.214844 12.628906 C 88.164062 12.367188 87.765625 12.476562 87.816406 12.734375 Z M 87.816406 12.734375 " fill-opacity="1" fill-rule="nonzero"/><path fill="#000200" d="M 88.203125 2.289062 C 88.710938 5.003906 89.074219 7.746094 89.292969 10.5 C 89.355469 11.28125 89.40625 12.058594 89.445312 12.839844 C 89.460938 13.101562 89.871094 13.105469 89.855469 12.839844 C 89.714844 10.050781 89.429688 7.273438 88.996094 4.515625 C 88.875 3.734375 88.742188 2.957031 88.597656 2.179688 C 88.550781 1.921875 88.152344 2.03125 88.203125 2.289062 Z M 88.203125 2.289062 " fill-opacity="1" fill-rule="nonzero"/><path fill="#000200" d="M 89.964844 1.5 C 90.488281 4.128906 90.828125 6.785156 90.976562 9.460938 C 91.019531 10.210938 91.046875 10.964844 91.0625 11.71875 C 91.066406 11.980469 91.476562 11.980469 91.472656 11.71875 C 91.421875 9.019531 91.1875 6.328125 90.765625 3.667969 C 90.644531 2.90625 90.507812 2.148438 90.359375 1.390625 C 90.308594 1.132812 89.914062 1.242188 89.964844 1.5 Z M 89.964844 1.5 " fill-opacity="1" fill-rule="nonzero"/><path fill="#000200" d="M 91.53125 2.214844 C 92.097656 4.660156 92.4375 7.152344 92.546875 9.65625 C 92.578125 10.371094 92.589844 11.085938 92.585938 11.800781 C 92.582031 12.0625 92.992188 12.0625 92.996094 11.800781 C 93.015625 9.253906 92.800781 6.710938 92.355469 4.207031 C 92.234375 3.503906 92.089844 2.804688 91.929688 2.105469 C 91.867188 1.851562 91.472656 1.957031 91.53125 2.214844 Z M 91.53125 2.214844 " fill-opacity="1" fill-rule="nonzero"/><path fill="#000200" d="M 107.421875 168.679688 C 109.628906 167.589844 111.882812 166.589844 114.164062 165.667969 C 116.441406 164.746094 118.746094 163.902344 121.074219 163.113281 C 123.398438 162.328125 125.753906 161.59375 128.117188 160.902344 C 130.476562 160.207031 132.855469 159.554688 135.238281 158.921875 C 137.621094 158.289062 139.988281 157.683594 142.363281 157.082031 C 142.667969 157.003906 142.96875 156.925781 143.269531 156.847656 C 143.527344 156.785156 143.417969 156.390625 143.160156 156.453125 C 140.765625 157.0625 138.367188 157.675781 135.972656 158.304688 C 133.578125 158.933594 131.210938 159.578125 128.84375 160.261719 C 126.472656 160.945312 124.101562 161.671875 121.753906 162.453125 C 119.410156 163.234375 117.089844 164.066406 114.796875 164.972656 C 112.503906 165.882812 110.265625 166.851562 108.058594 167.914062 C 107.777344 168.050781 107.496094 168.1875 107.21875 168.324219 C 106.980469 168.441406 107.1875 168.792969 107.425781 168.675781 Z M 107.421875 168.679688 " fill-opacity="1" fill-rule="nonzero"/><path fill="#000200" d="M 101.65625 168.039062 C 103.164062 167.625 104.691406 167.277344 106.226562 166.976562 C 107.761719 166.675781 109.382812 166.410156 110.972656 166.191406 C 111.832031 166.074219 112.695312 165.96875 113.5625 165.878906 C 113.671875 165.867188 113.765625 165.792969 113.765625 165.675781 C 113.765625 165.574219 113.671875 165.457031 113.5625 165.46875 C 111.988281 165.636719 110.417969 165.84375 108.855469 166.09375 C 107.292969 166.347656 105.683594 166.648438 104.113281 167.003906 C 103.253906 167.195312 102.398438 167.410156 101.550781 167.640625 C 101.296875 167.710938 101.402344 168.109375 101.660156 168.039062 Z M 101.65625 168.039062 " fill-opacity="1" fill-rule="nonzero"/><path fill="#000200" d="M 143.171875 180.410156 C 143.355469 179.808594 143.75 179.292969 144.109375 178.785156 C 144.46875 178.28125 144.859375 177.761719 145.253906 177.265625 C 146.039062 176.28125 146.875 175.339844 147.761719 174.445312 C 148.265625 173.933594 148.789062 173.4375 149.328125 172.953125 C 149.523438 172.777344 149.234375 172.488281 149.035156 172.664062 C 147.109375 174.390625 145.375 176.328125 143.863281 178.429688 C 143.445312 179.011719 142.988281 179.605469 142.777344 180.300781 C 142.699219 180.554688 143.09375 180.660156 143.171875 180.410156 Z M 143.171875 180.410156 " fill-opacity="1" fill-rule="nonzero"/><path fill="#000200" d="M 108.730469 194.460938 C 109.976562 194.636719 111.226562 194.777344 112.480469 194.886719 C 113.703125 194.992188 114.945312 195.097656 116.171875 194.941406 C 117.394531 194.789062 118.46875 194.339844 119.542969 193.808594 C 120.617188 193.277344 121.75 192.667969 122.832031 192.058594 C 125.023438 190.828125 127.171875 189.519531 129.324219 188.226562 C 131.480469 186.929688 133.757812 185.566406 135.972656 184.238281 C 138.183594 182.90625 140.382812 181.589844 142.585938 180.265625 C 142.863281 180.101562 143.140625 179.9375 143.414062 179.769531 C 143.640625 179.636719 143.433594 179.28125 143.207031 179.417969 C 141.019531 180.726562 138.835938 182.039062 136.648438 183.351562 C 134.464844 184.664062 132.277344 185.972656 130.09375 187.285156 C 127.90625 188.597656 125.808594 189.878906 123.640625 191.128906 C 122.570312 191.742188 121.488281 192.34375 120.394531 192.914062 C 119.296875 193.484375 118.28125 194.027344 117.132812 194.339844 C 115.988281 194.652344 114.722656 194.640625 113.511719 194.554688 C 112.304688 194.472656 111.023438 194.34375 109.789062 194.191406 C 109.46875 194.148438 109.152344 194.109375 108.835938 194.0625 C 108.578125 194.027344 108.464844 194.421875 108.726562 194.460938 Z M 108.730469 194.460938 " fill-opacity="1" fill-rule="nonzero"/><path fill="#000200" d="M 157.914062 250.453125 C 157.582031 249.238281 156.8125 248.171875 155.769531 247.464844 C 155.578125 247.332031 155.335938 247.640625 155.519531 247.785156 C 155.550781 247.808594 155.582031 247.832031 155.613281 247.855469 C 155.699219 247.925781 155.816406 247.941406 155.902344 247.855469 C 155.972656 247.785156 155.992188 247.636719 155.902344 247.566406 C 155.871094 247.542969 155.839844 247.519531 155.8125 247.496094 L 155.5625 247.816406 C 156.515625 248.464844 157.214844 249.449219 157.519531 250.5625 C 157.585938 250.816406 157.984375 250.707031 157.914062 250.453125 Z M 157.914062 250.453125 " fill-opacity="1" fill-rule="nonzero"/><path fill="#000200" d="M 158.539062 247.101562 C 159.007812 247.5625 159.410156 248.078125 159.738281 248.648438 C 159.902344 248.925781 160.046875 249.21875 160.171875 249.519531 C 160.230469 249.667969 160.285156 249.8125 160.335938 249.960938 C 160.390625 250.125 160.453125 250.300781 160.414062 250.476562 C 160.351562 250.730469 160.746094 250.839844 160.808594 250.585938 C 160.894531 250.210938 160.734375 249.832031 160.597656 249.492188 C 160.464844 249.148438 160.3125 248.828125 160.136719 248.515625 C 159.78125 247.890625 159.339844 247.316406 158.828125 246.8125 C 158.640625 246.625 158.351562 246.917969 158.539062 247.101562 Z M 158.539062 247.101562 " fill-opacity="1" fill-rule="nonzero"/><path fill="#000200" d="M 161.835938 246.761719 C 163.015625 247.636719 163.886719 248.902344 164.292969 250.3125 C 164.367188 250.566406 164.765625 250.457031 164.691406 250.203125 C 164.25 248.6875 163.3125 247.347656 162.046875 246.410156 C 161.957031 246.34375 161.816406 246.394531 161.765625 246.484375 C 161.703125 246.585938 161.75 246.695312 161.839844 246.761719 Z M 161.835938 246.761719 " fill-opacity="1" fill-rule="nonzero"/><path fill="#000200" d="M 164.128906 245.976562 C 165.496094 246.964844 166.527344 248.402344 167.039062 250.007812 C 167.117188 250.257812 167.515625 250.152344 167.433594 249.898438 C 167.011719 248.570312 166.257812 247.351562 165.253906 246.386719 C 164.96875 246.109375 164.660156 245.855469 164.335938 245.621094 C 164.246094 245.558594 164.109375 245.605469 164.054688 245.695312 C 163.996094 245.800781 164.039062 245.910156 164.128906 245.976562 Z M 164.128906 245.976562 " fill-opacity="1" fill-rule="nonzero"/><path fill="#000200" d="M 137.511719 215.265625 C 137.816406 215.570312 141.316406 219.953125 148.335938 218.121094 C 148.335938 218.121094 139.914062 219.980469 137.429688 217.929688 Z M 137.511719 215.265625 " fill-opacity="1" fill-rule="nonzero"/><path fill="#000200" d="M 78.300781 204.273438 C 78.300781 204.273438 76.929688 201.144531 80.089844 198.203125 C 80.089844 198.203125 76.535156 199.597656 76.921875 203.6875 Z M 78.300781 204.273438 " fill-opacity="1" fill-rule="nonzero"/><path fill="#000200" d="M 94.058594 19.902344 C 94.292969 19.054688 94.453125 18.1875 94.535156 17.308594 C 94.613281 16.433594 94.605469 15.476562 94.558594 14.5625 C 94.472656 12.722656 94.34375 10.882812 94.230469 9.046875 C 94.167969 8.011719 94.105469 6.976562 94.042969 5.941406 C 94.027344 5.679688 93.617188 5.675781 93.632812 5.941406 C 93.742188 7.765625 93.851562 9.589844 93.960938 11.410156 C 94.019531 12.328125 94.078125 13.242188 94.128906 14.15625 C 94.179688 15.074219 94.210938 15.96875 94.15625 16.871094 C 94.097656 17.859375 93.929688 18.839844 93.660156 19.792969 C 93.589844 20.046875 93.984375 20.15625 94.058594 19.902344 Z M 94.058594 19.902344 " fill-opacity="1" fill-rule="nonzero"/></svg>